<?xml version="1.0" standalone="no"?>
<!DOCTYPE svg PUBLIC "-//W3C//DTD SVG 1.1//EN"
  "http://www.w3.org/Graphics/SVG/1.1/DTD/svg11.dtd">
<svg width="32.000000953674316mm" height="32.000000953674316mm" viewBox="-9.585000038146973 9.414999961853027 32.000000953674316 32.000000953674316" xmlns="http://www.w3.org/2000/svg" version="1.1">
	<title>svgOutput</title>
	<desc>made with tinkercad</desc>
<path d="M 2.6022017002105713 18.52492904663086 L 2.5294480323791504 18.572839736938477 L 1.9520682096481323 18.95049285888672 L 1.9119821786880493 18.975107192993164 L 1.3327285051345825 19.3555908203125 L 1.2910000085830688 19.382999420166016 L 1.2879278659820557 19.3848934173584 L 1.239661693572998 19.41464614868164 L 1.1714451313018799 19.460359573364258 L 1.1208100318908691 19.49271011352539 L 1.1018218994140625 19.505367279052734 L 1.0219999551773071 19.55699920654297 L 1.0194292068481445 19.5602970123291 L 0.9833540916442871 19.60655403137207 L 0.8635178804397583 19.762531280517578 L 0.3023886978626251 20.479999542236328 L 0.23199999332427979 20.56999969482422 L 0.13308756053447723 20.700298309326172 L 0 20.87111473083496 L -0.47750651836395264 21.483989715576172 L -0.4776233732700348 21.484106063842773 L -0.487968385219574 21.49445152282715 L -0.5469354391098022 21.57339096069336 L -0.5501648783683777 21.577550888061523 L -0.5783414244651794 21.613845825195312 L -0.5870000123977661 21.625 L -0.7045480012893677 21.967538833618164 L -0.7087059617042542 21.98167610168457 L -1.181586742401123 23.35801124572754 L -1.284999966621399 23.659000396728516 L -1.3049582242965698 23.7147159576416 L -1.3814648389816284 23.93592071533203 L -1.3856227397918701 23.953384399414062 L -1.4122337102890015 24.0290584564209 L -1.437999963760376 24.104000091552734 L -1.437999963760376 24.106618881225586 L -1.437999963760376 24.576000213623047 L -1.437999963760376 26.69300079345703 L -1.437999963760376 26.72352409362793 L -1.437999963760376 26.72599983215332 L -1.42039954662323 26.777299880981445 L -1.4200063943862915 26.779003143310547 L -1.4175359010696411 26.789709091186523 L -1.4021185636520386 26.8311767578125 L -1.3898547887802124 26.86416244506836 L -1.0509999990463257 27.854000091552734 L -1.035727620124817 27.899816513061523 L -0.7709792256355286 28.672000885009766 L -0.6462832689285278 29.035696029663086 L -0.6445528268814087 29.03742790222168 L -0.6434196829795837 29.03856086730957 L -0.6081024408340454 29.143556594848633 L -0.5870000123977661 29.204999923706055 L -0.5451245307922363 29.258941650390625 L -0.5128431916236877 29.300199508666992 L -0.5064098834991455 29.308813095092773 L -0.4553113281726837 29.37721824645996 L -4.5252883437826765e-15 29.96184539794922 L 0.2471340447664261 30.2791690826416 L 0.2675485610961914 30.304224014282227 L 0.44200000166893005 30.525999069213867 L 0.47169387340545654 30.565900802612305 L 0.9124621152877808 31.131940841674805 L 0.9802011847496033 31.219165802001953 L 1.0219999551773071 31.273000717163086 L 1.0226314067840576 31.273420333862305 L 1.0490000247955322 31.291000366210938 L 1.0507999658584595 31.292150497436523 L 3.0671000480651855 32.609375 L 3.1126976013183594 32.63917541503906 L 3.11537504196167 32.640926361083984 L 3.1194748878479004 32.64362335205078 L 3.2160000801086426 32.707000732421875 L 3.2553234100341797 32.71754837036133 L 3.256999969482422 32.71799850463867 L 3.2588748931884766 32.718448638916016 L 3.2993006706237793 32.72869110107422 L 3.4544498920440674 32.768001556396484 L 4.0960001945495605 32.9305419921875 L 5.583274841308594 33.307350158691406 L 5.6427001953125 33.3223991394043 L 5.709000110626221 33.3380012512207 L 5.756999969482422 33.35100173950195 L 5.846724987030029 33.34360122680664 L 5.854000091552734 33.34299850463867 L 5.854525089263916 33.34294891357422 L 5.910325050354004 33.33829879760742 L 8.192000389099121 33.149906158447266 L 8.248374938964844 33.14524841308594 L 8.254949569702148 33.14472579956055 L 8.256629943847656 33.144569396972656 L 8.369999885559082 33.13399887084961 L 8.383999824523926 33.12900161743164 L 8.38634967803955 33.127925872802734 L 9.205899238586426 32.768001556396484 L 10.584283828735352 32.16264724731445 L 10.606425285339355 32.152923583984375 L 10.662150382995605 32.128475189208984 L 10.706999778747559 32.108001708984375 L 10.770949363708496 32.08102035522461 L 10.770999908447266 32.08100128173828 L 10.773150444030762 32.07899856567383 L 10.940850257873535 31.924949645996094 L 10.985699653625488 31.883649826049805 L 12.612000465393066 30.385074615478516 L 12.651000022888184 30.349000930786133 L 12.690607070922852 30.31424331665039 L 12.699999809265137 30.305999755859375 L 12.70460033416748 30.297353744506836 L 12.743438720703125 30.225526809692383 L 12.809209823608398 30.10150146484375 L 12.899410247802734 29.932376861572266 L 12.932294845581055 29.872241973876953 L 13.418999671936035 28.974000930786133 L 13.442489624023438 28.93077850341797 L 13.582582473754883 28.672000885009766 L 13.608535766601562 28.624061584472656 L 13.860604286193848 28.1584415435791 L 13.91416072845459 28.059783935546875 L 13.946000099182129 28.000999450683594 L 13.946072578430176 28.000564575195312 L 13.957220077514648 27.933883666992188 L 13.967658996582031 27.868404388427734 L 13.982842445373535 27.779197692871094 L 13.990434646606445 27.730798721313477 L 14.166000366210938 26.684999465942383 L 14.188776016235352 26.53980255126953 L 14.347259521484375 25.591751098632812 L 14.367188453674316 25.479768753051758 L 14.378000259399414 25.415000915527344 L 14.368180274963379 25.35603904724121 L 14.36671257019043 25.34722137451172 L 14.346789360046387 25.229583740234375 L 14.238131523132324 24.576000213623047 L 14.167516708374023 24.151243209838867 L 14.157999992370605 24.0939998626709 L 14.147563934326172 24.03233528137207 L 13.975174903869629 23.00495719909668 L 13.956877708435059 22.893905639648438 L 13.946000099182129 22.82900047302246 L 13.944575309753418 22.826374053955078 L 13.881199836730957 22.710350036621094 L 13.853224754333496 22.658649444580078 L 12.75709342956543 20.63105010986328 L 12.756349563598633 20.629674911499023 L 12.754599571228027 20.626375198364258 L 12.699999809265137 20.52400016784668 L 12.698518753051758 20.5226993560791 L 12.674983978271484 20.502046585083008 L 12.651000022888184 20.481000900268555 L 12.649999618530273 20.48007583618164 L 12.649918556213379 20.479999542236328 L 12.60830020904541 20.441650390625 L 10.859149932861328 18.831924438476562 L 10.854849815368652 18.827974319458008 L 10.775568962097168 18.75330352783203 L 10.770999908447266 18.749000549316406 L 10.706999778747559 18.722000122070312 L 10.705849647521973 18.72147560119629 L 8.532574653625488 17.767925262451172 L 8.4756498336792 17.7429256439209 L 8.383999824523926 17.701000213623047 L 8.369999885559082 17.695999145507812 L 8.368478775024414 17.695858001708984 L 8.36828327178955 17.69584083557129 L 8.367050170898438 17.695724487304688 L 8.192000389099121 17.681747436523438 L 8.110625267028809 17.675249099731445 L 8.050675392150879 17.670299530029297 L 5.874475002288818 17.488950729370117 L 5.854000091552734 17.48699951171875 L 5.756999969482422 17.479000091552734 L 5.756546974182129 17.479122161865234 L 5.751584053039551 17.480466842651367 L 5.733280658721924 17.485424041748047 L 5.710738182067871 17.49152946472168 L 5.709000110626221 17.492000579833984 L 5.707300186157227 17.492399215698242 L 3.3897249698638916 18.079349517822266 L 3.330125093460083 18.094449996948242 L 3.3296966552734375 18.094552993774414 L 3.2969138622283936 18.102420806884766 L 3.256999969482422 18.11199951171875 L 3.2180209159851074 18.12245750427246 L 3.2160000801086426 18.12299919128418 L 3.17167067527771 18.152027130126953 L 2.6447834968566895 18.49688720703125 L 2.6022017002105713 18.52492904663086 M 20.384000778198242 30.475000381469727 L 20.372407913208008 30.719999313354492 L 20.36199951171875 30.940000534057617 L 20.184999465942383 31.371999740600586 L 19.871000289916992 31.715999603271484 L 19.68000030517578 31.812000274658203 L 19.677322387695312 31.81342887878418 L 19.457000732421875 31.930999755859375 L 18.992000579833984 31.992000579833984 L 18.538999557495117 31.889999389648438 L 18.106000900268555 31.709999084472656 L 17.711000442504883 31.68400001525879 L 17.642000198364258 31.67799949645996 L 17.63794708251953 31.67919158935547 L 17.19300079345703 31.809999465942383 L 16.816999435424805 32.08599853515625 L 16.55900001525879 32.472999572753906 L 16.487524032592773 32.768001556396484 L 16.448999404907227 32.926998138427734 L 16.496999740600586 33.3650016784668 L 16.5 33.388999938964844 L 16.70400047302246 33.80799865722656 L 17.03700065612793 34.13800048828125 L 17.30299949645996 34.52000045776367 L 17.423999786376953 34.97100067138672 L 17.413000106811523 35.095001220703125 L 17.400747299194336 35.23906707763672 L 17.384000778198242 35.43600082397461 L 17.382625579833984 35.43893051147461 L 17.208999633789062 35.808998107910156 L 17.188594818115234 35.85564041137695 L 17.18757438659668 35.857398986816406 L 17.185157775878906 35.85981750488281 L 16.864849090576172 36.18012619018555 L 16.85700035095215 36.1879997253418 L 16.856952667236328 36.18802261352539 L 16.43600082397461 36.38399887084961 L 16.384000778198242 36.388832092285156 L 16.209999084472656 36.404998779296875 L 15.970999717712402 36.42399978637695 L 15.520000457763672 36.303001403808594 L 15.406999588012695 36.224998474121094 L 15.137999534606934 36.0369987487793 L 14.807999610900879 35.70399856567383 L 14.545000076293945 35.57500076293945 L 14.388999938964844 35.5 L 14.336000442504883 35.494041442871094 L 14.130999565124512 35.47100067138672 L 13.927000045776367 35.44900131225586 L 13.472999572753906 35.558998107910156 L 13.086000442504883 35.81700134277344 L 12.8100004196167 36.19300079345703 L 12.678000450134277 36.641998291015625 L 12.685999870300293 36.76499938964844 L 12.692967414855957 36.86399841308594 L 12.710000038146973 37.10599899291992 L 12.890000343322754 37.53900146484375 L 12.991999626159668 37.992000579833984 L 12.979000091552734 38.09199905395508 L 12.930999755859375 38.457000732421875 L 12.820113182067871 38.6705207824707 L 12.715999603271484 38.87099838256836 L 12.689000129699707 38.89500045776367 L 12.499658584594727 39.06725311279297 L 12.47231674194336 39.09322738647461 L 12.373132705688477 39.18392562866211 L 12.371475219726562 39.18519973754883 L 12.368955612182617 39.186161041259766 L 12.355812072753906 39.191165924072266 L 12.35099983215332 39.19300079345703 L 12.288000106811523 39.21890640258789 L 11.9399995803833 39.36199951171875 L 11.475000381469727 39.38399887084961 L 11.257399559020996 39.315696716308594 L 11.029000282287598 39.24399948120117 L 10.659000396728516 38.95899963378906 L 10.586000442504883 38.84400177001953 L 10.409000396728516 38.56700134277344 L 10.406844139099121 38.561767578125 L 10.230999946594238 38.1349983215332 L 9.925000190734863 37.78300094604492 L 9.905926704406738 37.77265167236328 L 9.513999938964844 37.560001373291016 L 9.055000305175781 37.487998962402344 L 8.811861038208008 37.53620529174805 L 8.595999717712402 37.57899856567383 L 8.197999954223633 37.82099914550781 L 8.192000389099121 37.82849884033203 L 7.927379608154297 38.15927505493164 L 7.906000137329102 38.18600082397461 L 7.864999771118164 38.30099868774414 L 7.755000114440918 38.625999450683594 L 7.757999897003174 39.09400177001953 L 7.703999996185303 39.391998291015625 L 7.677553653717041 39.54969787597656 L 7.677000045776367 39.553001403808594 L 7.633947849273682 39.6255989074707 L 7.633013725280762 39.627174377441406 L 7.625999927520752 39.638999938964844 L 7.590701580047607 39.70077133178711 L 7.465391635894775 39.918739318847656 L 7.453237533569336 39.9399299621582 L 7.443999767303467 39.95600128173828 L 7.443944931030273 39.95604705810547 L 7.432056427001953 39.966041564941406 L 7.249495506286621 40.119537353515625 L 7.202592849731445 40.15896987915039 L 7.085999965667725 40.25699996948242 L 6.699999809265137 40.395999908447266 L 6.650444030761719 40.41446304321289 L 6.648375034332275 40.415000915527344 L 6.647237300872803 40.415000915527344 L 6.181000232696533 40.415000915527344 L 6.144000053405762 40.4016227722168 L 5.74399995803833 40.25699996948242 L 5.386000156402588 39.95600128173828 L 5.15336275100708 39.553627014160156 L 5.1529998779296875 39.553001403808594 L 5.129000186920166 39.41600036621094 L 5.072000026702881 39.09400177001953 L 5.074999809265137 38.625999450683594 L 4.923999786376953 38.18600082397461 L 4.907649040222168 38.16556167602539 L 4.631999969482422 37.82099914550781 L 4.2829999923706055 37.608001708984375 L 4.235393047332764 37.57982635498047 L 4.233675003051758 37.57892608642578 L 4.2210001945495605 37.57600021362305 L 4.0960001945495605 37.55133819580078 L 3.7750000953674316 37.487998962402344 L 3.315999984741211 37.560001373291016 L 2.9068541526794434 37.7819938659668 L 2.9049999713897705 37.78300094604492 L 2.8239998817443848 37.87699890136719 L 2.5989999771118164 38.1349983215332 L 2.5309998989105225 38.292999267578125 L 2.4210000038146973 38.56700134277344 L 2.1710000038146973 38.95899963378906 L 2.0910000801086426 39.020999908447266 L 2.0480000972747803 39.0540657043457 L 1.8009999990463257 39.24399948120117 L 1.3550000190734863 39.38399887084961 L 0.9440000057220459 39.3650016784668 L 0.8899999856948853 39.36199951171875 L 0.4580000042915344 39.185001373291016 L 0.12554943561553955 38.88154220581055 L 0.11400000005960464 38.87099838256836 L 0.017999999225139618 38.68000030517578 L 0.012198100797832012 38.66912841796875 L 0 38.646270751953125 L -0.10100000351667404 38.457000732421875 L -0.16200000047683716 37.992000579833984 L -0.05999999865889549 37.53900146484375 L -2.150860386809241e-15 37.3946647644043 L 0.11999999731779099 37.10599899291992 L 0.13668964803218842 36.86399841308594 L 0.15199999511241913 36.641998291015625 L 0.019999999552965164 36.19300079345703 L 0 36.16575241088867 L -0.25600001215934753 35.81700134277344 L -0.42473164200782776 35.70451354980469 L -0.6430000066757202 35.558998107910156 L -1.0888227224349976 35.45098114013672 L -1.097000002861023 35.44900131225586 L -1.437999963760376 35.48699951171875 L -1.554903268814087 35.49956130981445 L -1.5583668947219849 35.49991989135742 L -1.559000015258789 35.5 L -1.9780000448226929 35.70399856567383 L -2.308000087738037 36.0369987487793 L -2.690000057220459 36.303001403808594 L -2.805000066757202 36.334999084472656 L -3.1410000324249268 36.42399978637695 L -3.4094018936157227 36.40091323852539 L -3.6059999465942383 36.38399887084961 L -4.0269999504089355 36.1879997253418 L -4.0960001945495605 36.11899948120117 L -4.357999801635742 35.856998443603516 L -4.4730000495910645 35.6099853515625 L -4.553999900817871 35.43600082397461 L -4.593999862670898 34.97100067138672 L -4.4730000495910645 34.52000045776367 L -4.4730000495910645 34.516998291015625 L -4.206999778747559 34.13800048828125 L -4.0960001945495605 34.02799987792969 L -3.874000072479248 33.80799865722656 L -3.700000047683716 33.45399856567383 L -3.6700000762939453 33.388999938964844 L -3.61899995803833 32.926998138427734 L -3.657524347305298 32.768001556396484 L -3.7290000915527344 32.472999572753906 L -3.986999988555908 32.08599853515625 L -4.0960001945495605 32.00621032714844 L -4.139999866485596 31.974000930786133 L -4.36299991607666 31.809999465942383 L -4.364724636077881 31.80949592590332 L -4.7870001792907715 31.68600082397461 L -4.811999797821045 31.67799949645996 L -4.813905715942383 31.678131103515625 L -5.276000022888184 31.709999084472656 L -5.709000110626221 31.889999389648438 L -6.1620001792907715 31.992000579833984 L -6.626999855041504 31.930999755859375 L -7.027756690979004 31.722877502441406 L -7.040999889373779 31.715999603271484 L -7.175000190734863 31.565000534057617 L -7.355000019073486 31.371999740600586 L -7.5320000648498535 30.940000534057617 L -7.534480094909668 30.882492065429688 L -7.537789821624756 30.805747985839844 L -7.541487693786621 30.719999313354492 L -7.547999858856201 30.569000244140625 L -7.553999900817871 30.475000381469727 L -7.414000034332275 30.02899932861328 L -7.130950927734375 29.66153335571289 L -7.129000186920166 29.659000396728516 L -7.126999855041504 29.659000396728516 L -6.736999988555908 29.409000396728516 L -6.603000164031982 29.354999542236328 L -6.3191094398498535 29.23687171936035 L -6.304999828338623 29.231000900268555 L -6.006999969482422 28.97100067138672 L -5.953000068664551 28.924999237060547 L -5.93755578994751 28.896535873413086 L -5.815727710723877 28.672000885009766 L -5.730000019073486 28.513999938964844 L -5.673999786376953 28.15999984741211 L -5.658452987670898 28.057973861694336 L -5.6579999923706055 28.05500030517578 L -5.699999809265137 27.84600067138672 L -5.749000072479248 27.59600067138672 L -5.991000175476074 27.197999954223633 L -6.336999893188477 26.922000885009766 L -6.337618827819824 26.921478271484375 L -6.355999946594238 26.9060001373291 L -6.796000003814697 26.7549991607666 L -7.263999938964844 26.757999420166016 L -7.7230000495910645 26.677000045776367 L -8.12600040435791 26.444000244140625 L -8.192000389099121 26.365501403808594 L -8.427000045776367 26.086000442504883 L -8.531000137329102 25.798999786376953 L -8.585000038146973 25.64900016784668 L -8.585000038146973 25.180999755859375 L -8.427000045776367 24.743999481201172 L -8.285748481750488 24.576000213623047 L -8.192000389099121 24.46449851989746 L -8.141033172607422 24.403879165649414 L -8.12600040435791 24.38599967956543 L -8.11591625213623 24.380146026611328 L -7.843921661376953 24.224063873291016 L -7.720512390136719 24.15324592590332 L -7.709608554840088 24.15131187438965 L -7.704305171966553 24.15036964416504 L -7.276851177215576 24.074501037597656 L -7.263999938964844 24.07200050354004 L -7.262803077697754 24.07200813293457 L -6.796000003814697 24.075000762939453 L -6.420000076293945 23.945999145507812 L -6.355999946594238 23.923999786376953 L -6.334646701812744 23.906917572021484 L -5.991000175476074 23.631999969482422 L -5.749000072479248 23.233999252319336 L -5.718106269836426 23.072580337524414 L -5.709000110626221 23.024999618530273 L -5.6579999923706055 22.774999618530273 L -5.659420490264893 22.765945434570312 L -5.696744918823242 22.527999877929688 L -5.698558330535889 22.516441345214844 L -5.730000019073486 22.31599998474121 L -5.941999912261963 21.926000595092773 L -5.953000068664551 21.905000686645508 L -5.953787326812744 21.904315948486328 L -6.304999828338623 21.599000930786133 L -6.736999988555908 21.42099952697754 L -6.894351959228516 21.320648193359375 L -7.129000186920166 21.17099952697754 L -7.4029998779296875 20.812000274658203 L -7.414000034332275 20.801000595092773 L -7.485694885253906 20.572601318359375 L -7.5147624015808105 20.479999542236328 L -7.553999900817871 20.354999542236328 L -7.534957408905029 19.952512741088867 L -7.5320000648498535 19.889999389648438 L -7.355000019073486 19.45800018310547 L -7.175000190734863 19.264999389648438 L -7.040999889373779 19.11400032043457 L -7.027756690979004 19.10712242126465 L -6.783979892730713 18.98052406311035 L -6.626999855041504 18.89900016784668 L -6.166410446166992 18.838579177856445 L -6.1620001792907715 18.83799934387207 L -6.159999847412109 18.84000015258789 L -5.709000110626221 18.940000534057617 L -5.301392555236816 19.10944366455078 L -5.276000022888184 19.1200008392334 L -4.88100004196167 19.145999908447266 L -4.811999797821045 19.152000427246094 L -4.36299991607666 19.020000457763672 L -4.0960001945495605 18.824010848999023 L -3.986999988555908 18.743999481201172 L -3.7290000915527344 18.35700035095215 L -3.61899995803833 17.902999877929688 L -3.6670000553131104 17.46500015258789 L -3.6700000762939453 17.44099998474121 L -3.874000072479248 17.02199935913086 L -4.0960001945495605 16.802000045776367 L -4.206999778747559 16.691999435424805 L -4.234000205993652 16.650999069213867 L -4.421134948730469 16.384000778198242 L -4.4730000495910645 16.309999465942383 L -4.593999862670898 15.859000205993652 L -4.553999900817871 15.394000053405762 L -4.357999801635742 14.972999572753906 L -4.0960001945495605 14.711000442504883 L -4.0269999504089355 14.642000198364258 L -3.6075737476348877 14.446732521057129 L -3.6059999465942383 14.446000099182129 L -3.3929998874664307 14.428000450134277 L -3.1410000324249268 14.406000137329102 L -2.690000057220459 14.527000427246094 L -2.308000087738037 14.793000221252441 L -1.9780000448226929 15.12600040435791 L -1.6230000257492065 15.300000190734863 L -1.559000015258789 15.329999923706055 L -1.532640814781189 15.33290958404541 L -1.097000002861023 15.380999565124512 L -0.6430000066757202 15.270999908447266 L -0.4346434772014618 15.132095336914062 L -0.25600001215934753 15.012999534606934 L 0 14.664246559143066 L 0.019999999552965164 14.63700008392334 L 0.14399999380111694 14.213000297546387 L 0.15199999511241913 14.189000129699707 L 0.15178926289081573 14.186366081237793 L 0.14399999380111694 14.08899974822998 L 0.14223915338516235 14.062220573425293 L 0.11999999731779099 13.723999977111816 L 1.0754301934046205e-15 13.435333251953125 L -0.05999999865889549 13.291000366210938 L -0.16200000047683716 12.838000297546387 L -0.10100000351667404 12.373000144958496 L -0.05540909245610237 12.288000106811523 L -0.041999999433755875 12.262999534606934 L -7.658902614017722e-16 12.181154251098633 L 0.11400000005960464 11.958999633789062 L 0.4180000126361847 11.682999610900879 L 0.4568672478199005 11.646076202392578 L 0.45852500200271606 11.644800186157227 L 0.4611961841583252 11.643782615661621 L 0.4790000021457672 11.63700008392334 L 0.8899999856948853 11.468000411987305 L 1.3550000190734863 11.446000099182129 L 1.8009999990463257 11.586000442504883 L 2.1700472831726074 11.87026596069336 L 2.1710000038146973 11.871000289916992 L 2.24399995803833 11.986000061035156 L 2.4210000038146973 12.262999534606934 L 2.4313008785247803 12.288000106811523 L 2.5989999771118164 12.694999694824219 L 2.9049999713897705 13.04699993133545 L 3.315999984741211 13.270000457763672 L 3.7750000953674316 13.342000007629395 L 4.0960001945495605 13.278359413146973 L 4.219066143035889 13.253960609436035 L 4.234000205993652 13.25100040435791 L 4.572999954223633 13.043999671936035 L 4.631999969482422 13.008999824523926 L 4.923999786376953 12.644000053405762 L 4.965000152587891 12.529000282287598 L 5.046569347381592 12.288000106811523 L 5.074999809265137 12.204000473022461 L 5.072000026702881 11.736000061035156 L 5.1529998779296875 11.277000427246094 L 5.203999996185303 11.190999984741211 L 5.386000156402588 10.87399959564209 L 5.397943496704102 10.863958358764648 L 5.74399995803833 10.572999954223633 L 6.130000114440918 10.434000015258789 L 6.179555892944336 10.41553783416748 L 6.181624889373779 10.414999961853027 L 6.182762622833252 10.414999961853027 L 6.64900016784668 10.414999961853027 L 7.085999965667725 10.572999954223633 L 7.443999767303467 10.87399959564209 L 7.676637649536133 11.276372909545898 L 7.677000045776367 11.277000427246094 L 7.701000213623047 11.413999557495117 L 7.757999897003174 11.736000061035156 L 7.755000114440918 12.204000473022461 L 7.783827304840088 12.288000106811523 L 7.867120265960693 12.530708312988281 L 7.906000137329102 12.644000053405762 L 8.192000389099121 13.001500129699707 L 8.197999954223633 13.008999824523926 L 8.595999717712402 13.25100040435791 L 8.781000137329102 13.288999557495117 L 9.055000305175781 13.342000007629395 L 9.513999938964844 13.270000457763672 L 9.92314624786377 13.048006057739258 L 9.925000190734863 13.04699993133545 L 10.005999565124512 12.95300006866455 L 10.230999946594238 12.694999694824219 L 10.398698806762695 12.288000106811523 L 10.409000396728516 12.262999534606934 L 10.569999694824219 12.010000228881836 L 10.659000396728516 11.871000289916992 L 10.73900032043457 11.809000015258789 L 11.029000282287598 11.586000442504883 L 11.475000381469727 11.446000099182129 L 11.88599967956543 11.46500015258789 L 11.938470840454102 11.467914581298828 L 11.94052505493164 11.468199729919434 L 11.961000442504883 11.47599983215332 L 12.008560180664062 11.495613098144531 L 12.162519454956055 11.558863639831543 L 12.288000106811523 11.610466957092285 L 12.343297958374023 11.633208274841309 L 12.371999740600586 11.645000457763672 L 12.715999603271484 11.958999633789062 L 12.886857032775879 12.288000106811523 L 12.930999755859375 12.373000144958496 L 12.991028785705566 12.830596923828125 L 12.991999626159668 12.838000297546387 L 12.960000038146973 12.972000122070312 L 12.890000343322754 13.291000366210938 L 12.710000038146973 13.723999977111816 L 12.678000450134277 14.189000129699707 L 12.686566352844238 14.218074798583984 L 12.721312522888184 14.336000442504883 L 12.8100004196167 14.63700008392334 L 13.052000045776367 14.967000007629395 L 13.08246898651123 15.008222579956055 L 13.085033416748047 15.01169204711914 L 13.086275100708008 15.0131254196167 L 13.097000122070312 15.017999649047852 L 13.255908966064453 15.12492561340332 L 13.472999572753906 15.270999908447266 L 13.927000045776367 15.380999565124512 L 14.362640380859375 15.33290958404541 L 14.388999938964844 15.329999923706055 L 14.501999855041504 15.276000022888184 L 14.807999610900879 15.12600040435791 L 15.137999534606934 14.793000221252441 L 15.520000457763672 14.527000427246094 L 15.616000175476074 14.5 L 15.970999717712402 14.406000137329102 L 16.23114776611328 14.428378105163574 L 16.384000778198242 14.441526412963867 L 16.40239143371582 14.443108558654785 L 16.43600082397461 14.446000099182129 L 16.80900001525879 14.621000289916992 L 16.85700035095215 14.642000198364258 L 17.187999725341797 14.972999572753906 L 17.38326644897461 15.392426490783691 L 17.384000778198242 15.394000053405762 L 17.402000427246094 15.607000350952148 L 17.423999786376953 15.859000205993652 L 17.30299949645996 16.309999465942383 L 17.2514705657959 16.384000778198242 L 17.03700065612793 16.691999435424805 L 16.70400047302246 17.02199935913086 L 16.5 17.44099998474121 L 16.448999404907227 17.902999877929688 L 16.55900001525879 18.35700035095215 L 16.608999252319336 18.43199920654297 L 16.675453186035156 18.531679153442383 L 16.677976608276367 18.535465240478516 L 16.816999435424805 18.743999481201172 L 17.19300079345703 19.020000457763672 L 17.617000579833984 19.143999099731445 L 17.642000198364258 19.152000427246094 L 17.643905639648438 19.15186882019043 L 18.106000900268555 19.1200008392334 L 18.538999557495117 18.940000534057617 L 18.991518020629883 18.83810806274414 L 18.992000579833984 18.83799934387207 L 19.113000869750977 18.854000091552734 L 19.457000732421875 18.89900016784668 L 19.674287796020508 19.011842727661133 L 19.871000289916992 19.11400032043457 L 20.184999465942383 19.45800018310547 L 20.36199951171875 19.889999389648438 L 20.384000778198242 20.354999542236328 L 20.344762802124023 20.479999542236328 L 20.243999481201172 20.801000595092773 L 19.96095085144043 21.168466567993164 L 19.958999633789062 21.17099952697754 L 19.957000732421875 21.17099952697754 L 19.566999435424805 21.42099952697754 L 19.135000228881836 21.599000930786133 L 18.836999893188477 21.858999252319336 L 18.783000946044922 21.905000686645508 L 18.78185272216797 21.907115936279297 L 18.559999465942383 22.31599998474121 L 18.526744842529297 22.527999877929688 L 18.488460540771484 22.772064208984375 L 18.488000869750977 22.774999618530273 L 18.530000686645508 22.983999252319336 L 18.57900047302246 23.233999252319336 L 18.820999145507812 23.631999969482422 L 19.16699981689453 23.908000946044922 L 19.18600082397461 23.923999786376953 L 19.187856674194336 23.924636840820312 L 19.625999450683594 24.075000762939453 L 20.0939998626709 24.07200050354004 L 20.479999542236328 24.140117645263672 L 20.55299949645996 24.152999877929688 L 20.95599937438965 24.38599967956543 L 21.11574935913086 24.576000213623047 L 21.256999969482422 24.743999481201172 L 21.28036880493164 24.808631896972656 L 21.415000915527344 25.180999755859375 L 21.415000915527344 25.64900016784668 L 21.256999969482422 26.086000442504883 L 20.95599937438965 26.444000244140625 L 20.55299949645996 26.677000045776367 L 19.16900062561035 26.920000076293945 L 19.16699981689453 26.922000885009766 L 18.820999145507812 27.197999954223633 L 18.71240997314453 27.376588821411133 L 18.57900047302246 27.59600067138672 L 18.538999557495117 27.80500030517578 L 18.488000869750977 28.05500030517578 L 18.48941993713379 28.064054489135742 L 18.559999465942383 28.513999938964844 L 18.64588737487793 28.672000885009766 L 18.77199935913086 28.90399932861328 L 18.783000946044922 28.924999237060547 L 19.135000228881836 29.231000900268555 L 19.566999435424805 29.409000396728516 L 19.958999633789062 29.659000396728516 L 20.243999481201172 30.02899932861328 L 20.31569480895996 30.257400512695312 L 20.384000778198242 30.475000381469727 z" fill="none" stroke="rgb(0,0,0)" stroke-width="0.1mm" />
</svg>