<?xml version="1.0" standalone="no"?>
<!DOCTYPE svg PUBLIC "-//W3C//DTD SVG 1.1//EN"
  "http://www.w3.org/Graphics/SVG/1.1/DTD/svg11.dtd">
<svg width="42.000000953674316mm" height="42.000000953674316mm" viewBox="-9.585000038146973 9.414999961853027 42.000000953674316 42.000000953674316" xmlns="http://www.w3.org/2000/svg" version="1.1">
	<title>svgOutput</title>
	<desc>made with tinkercad</desc>
<path d="M 10.043000221252441 11.027000427246094 L 10.057161331176758 11.015094757080078 L 10.304572105407715 10.807104110717773 L 10.3204927444458 10.793720245361328 L 10.520000457763672 10.62600040435791 L 11.03499984741211 10.4399995803833 L 11.10107421875 10.4157075881958 L 11.103824615478516 10.414999961853027 L 11.104220390319824 10.414999961853027 L 11.72700023651123 10.414999961853027 L 11.794523239135742 10.439437866210938 L 12.288000106811523 10.618038177490234 L 12.3100004196167 10.62600040435791 L 12.786999702453613 11.027000427246094 L 13.097999572753906 11.5649995803833 L 13.130000114440918 11.746999740600586 L 13.206000328063965 12.177000045776367 L 13.205986022949219 12.179170608520508 L 13.20199966430664 12.800000190734863 L 13.402000427246094 13.38700008392334 L 13.42293643951416 13.413077354431152 L 13.424901962280273 13.415525436401367 L 13.793000221252441 13.87399959564209 L 14.322999954223633 14.196999549865723 L 14.569999694824219 14.246999740600586 L 14.9350004196167 14.317999839782715 L 15.54699993133545 14.222000122070312 L 16.092376708984375 13.925426483154297 L 16.094999313354492 13.923999786376953 L 16.202999114990234 13.798999786376953 L 16.384000778198242 13.592143058776855 L 16.503999710083008 13.454999923706055 L 16.739999771118164 12.878999710083008 L 16.954999923706055 12.541999816894531 L 17.072999954223633 12.355999946594238 L 17.07430076599121 12.355003356933594 L 17.161731719970703 12.288000106811523 L 17.18000030517578 12.27400016784668 L 17.566999435424805 11.97599983215332 L 18.16200065612793 11.789999961853027 L 18.709999084472656 11.8149995803833 L 18.778989791870117 11.818886756896973 L 18.78172492980957 11.81927490234375 L 18.809999465942383 11.829999923706055 L 18.87325096130371 11.855986595153809 L 19.078693389892578 11.94032096862793 L 19.319700241088867 12.039278030395508 L 19.357999801635742 12.055000305175781 L 19.358291625976562 12.055267333984375 L 19.612688064575195 12.288000106811523 L 19.81599998474121 12.473999977111816 L 20.10300064086914 13.026000022888184 L 20.18351936340332 13.633817672729492 L 20.184999465942383 13.645000457763672 L 20.142000198364258 13.824000358581543 L 20.048999786376953 14.25 L 19.80900001525879 14.82699966430664 L 19.766000747680664 15.446000099182129 L 19.77854347229004 15.488863945007324 L 19.94099998474121 16.04400062561035 L 20.190025329589844 16.384000778198242 L 20.263999938964844 16.485000610351562 L 20.30533218383789 16.53980827331543 L 20.308692932128906 16.544265747070312 L 20.310375213623047 16.546175003051758 L 20.325000762939453 16.55299949645996 L 20.826000213623047 16.888999938964844 L 21.430999755859375 17.035999298095703 L 22.047000885009766 16.968000411987305 L 22.19700050354004 16.89699935913086 L 22.606000900268555 16.695999145507812 L 22.915189743041992 16.384000778198242 L 23.04599952697754 16.25200080871582 L 23.55500030517578 15.89799976348877 L 23.68400001525879 15.862000465393066 L 24.1560001373291 15.736000061035156 L 24.576000213623047 15.772581100463867 L 24.755937576293945 15.788252830505371 L 24.775999069213867 15.789999961853027 L 25.27400016784668 16.023000717163086 L 25.33799934387207 16.052000045776367 L 25.670000076293945 16.384000778198242 L 25.777999877929688 16.492000579833984 L 26.040000915527344 17.054000854492188 L 26.065000534057617 17.336999893188477 L 26.0939998626709 17.673999786376953 L 25.93199920654297 18.274999618530273 L 25.577999114990234 18.784000396728516 L 25.134000778198242 19.224000930786133 L 24.86199951171875 19.783000946044922 L 24.79400062561035 20.39900016784668 L 24.81368064880371 20.479999542236328 L 24.94099998474121 21.003999710083008 L 25.085561752319336 21.221473693847656 L 25.098955154418945 21.241622924804688 L 25.284000396728516 21.520000457763672 L 25.785999298095703 21.888999938964844 L 26.35099983215332 22.05299949645996 L 26.384000778198242 22.06399917602539 L 26.387950897216797 22.0637264251709 L 27.003000259399414 22.020999908447266 L 27.579999923706055 21.7810001373291 L 28.18244743347168 21.64557456970215 L 28.184999465942383 21.645000457763672 L 28.34600067138672 21.66699981689453 L 28.672000885009766 21.709707260131836 L 28.804000854492188 21.726999282836914 L 29.356000900268555 22.013999938964844 L 29.774999618530273 22.472000122070312 L 30.01099967956543 23.048999786376953 L 30.040000915527344 23.667999267578125 L 29.854000091552734 24.26300048828125 L 29.613231658935547 24.576000213623047 L 29.476913452148438 24.75321388244629 L 29.474000930786133 24.756999969482422 L 29.47100067138672 24.756999969482422 L 28.951000213623047 25.09000015258789 L 28.672000885009766 25.204313278198242 L 28.375 25.326000213623047 L 27.976999282836914 25.673999786376953 L 27.9060001373291 25.735000610351562 L 27.90488052368164 25.737060546875 L 27.607999801635742 26.283000946044922 L 27.513517379760742 26.88532066345215 L 27.511999130249023 26.895000457763672 L 27.569000244140625 27.173999786376953 L 27.632999420166016 27.506999969482422 L 27.95599937438965 28.03700065612793 L 28.417999267578125 28.4060001373291 L 28.44300079345703 28.42799949645996 L 28.447437286376953 28.42951202392578 L 28.672000885009766 28.506023406982422 L 29.030000686645508 28.628000259399414 L 29.652999877929688 28.624000549316406 L 29.924999237060547 28.672000885009766 L 30.264999389648438 28.73200035095215 L 30.80299949645996 29.042999267578125 L 31.20400047302246 29.520000457763672 L 31.2353572845459 29.60664176940918 L 31.39458656311035 30.04659652709961 L 31.415000915527344 30.10300064086914 L 31.415000915527344 30.726999282836914 L 31.20400047302246 31.309999465942383 L 30.80299949645996 31.78700065612793 L 30.264999389648438 32.097999572753906 L 28.42064666748047 32.4218864440918 L 28.420000076293945 32.422000885009766 L 28.417999267578125 32.42399978637695 L 27.987300872802734 32.768001556396484 L 27.95599937438965 32.792999267578125 L 27.632999420166016 33.323001861572266 L 27.579999923706055 33.60200119018555 L 27.578580856323242 33.60895538330078 L 27.511999130249023 33.935001373291016 L 27.607999801635742 34.547000885009766 L 27.889406204223633 35.06407165527344 L 27.891000747680664 35.06700134277344 L 27.9060001373291 35.095001220703125 L 28.375 35.50400161743164 L 28.951000213623047 35.7400016784668 L 29.474000930786133 36.073001861572266 L 29.854000091552734 36.56700134277344 L 29.94684410095215 36.86399841308594 L 30.040000915527344 37.1619987487793 L 30.01099967956543 37.78099822998047 L 29.774999618530273 38.358001708984375 L 29.356000900268555 38.816001892089844 L 29.101999282836914 38.94499969482422 L 28.804000854492188 39.10300064086914 L 28.78627586364746 39.1053466796875 L 28.672000885009766 39.120487213134766 L 28.184999465942383 39.185001373291016 L 27.579999923706055 39.04899978637695 L 27.003000259399414 38.808998107910156 L 26.476999282836914 38.77299880981445 L 26.384000778198242 38.76599884033203 L 26.38224220275879 38.76651382446289 L 25.785999298095703 38.941001892089844 L 25.284000396728516 39.310001373291016 L 24.94099998474121 39.82600021362305 L 24.79400062561035 40.430999755859375 L 24.851972579956055 40.959999084472656 L 24.857446670532227 41.00994873046875 L 24.857999801635742 41.01499938964844 L 24.86199951171875 41.047000885009766 L 25.134000778198242 41.60599899291992 L 25.577999114990234 42.04600143432617 L 25.93199920654297 42.55500030517578 L 26.09334945678711 43.153587341308594 L 26.0939998626709 43.15599822998047 L 26.07900047302246 43.32099914550781 L 26.040000915527344 43.7760009765625 L 25.80699920654297 44.27399826049805 L 25.77882194519043 44.33618927001953 L 25.777475357055664 44.338523864746094 L 25.776226043701172 44.33977508544922 L 25.33799934387207 44.77799987792969 L 25.32890510559082 44.78224182128906 L 24.775999069213867 45.040000915527344 L 24.576000213623047 45.059268951416016 L 24.475000381469727 45.069000244140625 L 24.1560001373291 45.09400177001953 L 24.015024185180664 45.055999755859375 L 23.55500030517578 44.93199920654297 L 23.40399932861328 44.82899856567383 L 23.04599952697754 44.577999114990234 L 22.606000900268555 44.13399887084961 L 22.2549991607666 43.96200180053711 L 22.047000885009766 43.86199951171875 L 21.97389793395996 43.85350036621094 L 21.702999114990234 43.821998596191406 L 21.430999755859375 43.79399871826172 L 20.826000213623047 43.941001892089844 L 20.309999465942383 44.284000396728516 L 19.94099998474121 44.7859992980957 L 19.86198616027832 45.055999755859375 L 19.77400016784668 45.356658935546875 L 19.766000747680664 45.38399887084961 L 19.777000427246094 45.54800033569336 L 19.80900001525879 46.00299835205078 L 20.048999786376953 46.58000183105469 L 20.166791915893555 47.104000091552734 L 20.184999465942383 47.185001373291016 L 20.16699981689453 47.31700134277344 L 20.10300064086914 47.80400085449219 L 20.099735260009766 47.810279846191406 L 19.81599998474121 48.35599899291992 L 19.780000686645508 48.38800048828125 L 19.527772903442383 48.61835479736328 L 19.491544723510742 48.652530670166016 L 19.359500885009766 48.773582458496094 L 19.357275009155273 48.77527618408203 L 19.355010986328125 48.7761344909668 L 19.33466911315918 48.78384780883789 L 19.32900047302246 48.7859992980957 L 18.7810001373291 49.01100158691406 L 18.43199920654297 49.02735137939453 L 18.16200065612793 49.040000915527344 L 17.566999435424805 48.854000091552734 L 17.075939178466797 48.476261138916016 L 17.072999954223633 48.4739990234375 L 16.97599983215332 48.31999969482422 L 16.739999771118164 47.95100021362305 L 16.503999710083008 47.375 L 16.384000778198242 47.237396240234375 L 16.094999313354492 46.90599822998047 L 15.54699993133545 46.608001708984375 L 14.9350004196167 46.512001037597656 L 14.322999954223633 46.632999420166016 L 13.793000221252441 46.95600128173828 L 13.431553840637207 47.40618896484375 L 13.402000427246094 47.44300079345703 L 13.348999977111816 47.59700012207031 L 13.20199966430664 48.029998779296875 L 13.206000328063965 48.65299987792969 L 13.133999824523926 49.05099868774414 L 13.117009162902832 49.152000427246094 L 13.09915828704834 49.258113861083984 L 13.097999572753906 49.26499938964844 L 13.029999732971191 49.380001068115234 L 12.982346534729004 49.46207046508789 L 12.960920333862305 49.499481201171875 L 12.815561294555664 49.75328063964844 L 12.799295425415039 49.781532287597656 L 12.786999702453613 49.803001403808594 L 12.781895637512207 49.80729293823242 L 12.775959968566895 49.81228256225586 L 12.772838592529297 49.814903259277344 L 12.3100004196167 50.20399856567383 L 11.795000076293945 50.38999938964844 L 11.728925704956055 50.41429138183594 L 11.726175308227539 50.415000915527344 L 11.72577953338623 50.415000915527344 L 11.102999687194824 50.415000915527344 L 10.520000457763672 50.20399856567383 L 10.043000221252441 49.803001403808594 L 9.732000350952148 49.26499938964844 L 9.71213150024414 49.152000427246094 L 9.699999809265137 49.08300018310547 L 9.62399959564209 48.65299987792969 L 9.624013900756836 48.65082931518555 L 9.628000259399414 48.029998779296875 L 9.428000450134277 47.44300079345703 L 9.407063484191895 47.41692352294922 L 9.042004585266113 46.96223449707031 L 9.036999702453613 46.95600128173828 L 8.571999549865723 46.67300033569336 L 8.508848190307617 46.63413619995117 L 8.506549835205078 46.6329231262207 L 8.48900032043457 46.630001068115234 L 8.192000389099121 46.57099914550781 L 7.894999980926514 46.512001037597656 L 7.2829999923706055 46.608001708984375 L 6.735000133514404 46.90599822998047 L 6.626999855041504 47.03099822998047 L 6.326000213623047 47.375 L 6.322390556335449 47.3835563659668 L 6.236999988555908 47.58599853515625 L 6.090000152587891 47.95100021362305 L 6.069387435913086 47.98337173461914 L 5.756999969482422 48.4739990234375 L 5.650000095367432 48.555999755859375 L 5.263000011444092 48.854000091552734 L 5.25986909866333 48.85498046875 L 4.973824501037598 48.94439697265625 L 4.944852352142334 48.953453063964844 L 4.668000221252441 49.040000915527344 L 4.119999885559082 49.01499938964844 L 4.0960001945495605 49.013648986816406 L 4.048999786376953 49.01100158691406 L 3.4719998836517334 48.775001525878906 L 3.025012969970703 48.36607360839844 L 3.0139999389648438 48.35599899291992 L 2.884999990463257 48.10200119018555 L 2.7269999980926514 47.80400085449219 L 2.6449999809265137 47.185001373291016 L 2.7809998989105225 46.58000183105469 L 3.0209999084472656 46.00299835205078 L 3.063999891281128 45.38399887084961 L 2.968013286590576 45.055999755859375 L 2.8889999389648438 44.7859992980957 L 2.5199999809265137 44.284000396728516 L 2.003999948501587 43.941001892089844 L 1.400722861289978 43.79441833496094 L 1.3990000486373901 43.79399871826172 L 0.9440000057220459 43.84400177001953 L 0.7884509563446045 43.86138916015625 L 0.7838441729545593 43.86189270019531 L 0.7829999923706055 43.86199951171875 L 0.2240000069141388 44.13399887084961 L 0 44.36003494262695 L -0.2160000056028366 44.577999114990234 L -0.7250000238418579 44.93199920654297 L -0.8790000081062317 44.974998474121094 L -1.1832605600357056 45.055999755859375 L -1.3259999752044678 45.09400177001953 L -1.7622963190078735 45.055999755859375 L -1.9459999799728394 45.040000915527344 L -2.447002649307251 44.806434631347656 L -2.507999897003174 44.77799987792969 L -2.947999954223633 44.3380012512207 L -3.1019999980926514 44.00766372680664 L -3.2100000381469727 43.7760009765625 L -3.2639999389648438 43.15599822998047 L -3.1019999980926514 42.55500030517578 L -3.1019999980926514 42.55099868774414 L -2.747999906539917 42.04600143432617 L -2.303999900817871 41.60599899291992 L -2.071000099182129 41.132999420166016 L -2.0320000648498535 41.047000885009766 L -2.0290634632110596 41.0203971862793 L -2.0223960876464844 40.959999084472656 L -1.9639999866485596 40.430999755859375 L -2.1110000610351562 39.82600021362305 L -2.4539999961853027 39.310001373291016 L -2.6579999923706055 39.15999984741211 L -2.9560000896453857 38.941001892089844 L -3.5209999084472656 38.777000427246094 L -3.553999900817871 38.76599884033203 L -3.557950735092163 38.766273498535156 L -4.0960001945495605 38.80364990234375 L -4.172999858856201 38.808998107910156 L -4.75 39.04899978637695 L -5.355000019073486 39.185001373291016 L -5.973999977111816 39.10300064086914 L -6.2605485916137695 38.95401382446289 L -6.51235294342041 38.823097229003906 L -6.526000022888184 38.816001892089844 L -6.704999923706055 38.61600112915039 L -6.945000171661377 38.358001708984375 L -7.174437522888184 37.79704666137695 L -7.181000232696533 37.78099822998047 L -7.203000068664551 37.2869987487793 L -7.210000038146973 37.1619987487793 L -7.1168437004089355 36.86399841308594 L -7.1101765632629395 36.842674255371094 L -7.02400016784668 36.56700134277344 L -6.646912574768066 36.076786041259766 L -6.644000053405762 36.073001861572266 L -6.640999794006348 36.073001861572266 L -6.120999813079834 35.7400016784668 L -5.941999912261963 35.667999267578125 L -5.558577537536621 35.50960922241211 L -5.545000076293945 35.50400161743164 L -5.146999835968018 35.15599822998047 L -5.076000213623047 35.095001220703125 L -4.7779998779296875 34.547000885009766 L -4.703000068664551 34.07500076293945 L -4.682000160217285 33.935001373291016 L -4.738999843597412 33.65599822998047 L -4.748149394989014 33.608394622802734 L -4.802999973297119 33.323001861572266 L -5.125999927520752 32.792999267578125 L -5.15730094909668 32.768001556396484 L -5.5879998207092285 32.42399978637695 L -5.588083744049072 32.423927307128906 L -5.61299991607666 32.402000427246094 L -6.199999809265137 32.20199966430664 L -6.822999954223633 32.20600128173828 L -7.434999942779541 32.097999572753906 L -7.9730000495910645 31.78700065612793 L -8.192000389099121 31.526493072509766 L -8.37399959564209 31.309999465942383 L -8.512999534606934 30.927000045776367 L -8.585000038146973 30.726999282836914 L -8.585000038146973 30.10300064086914 L -8.37399959564209 29.520000457763672 L -8.192000389099121 29.30350685119629 L -7.989226818084717 29.062301635742188 L -7.9730000495910645 29.042999267578125 L -7.959563255310059 29.03520393371582 L -7.56884241104126 28.81060791015625 L -7.43268346786499 28.732341766357422 L -7.421825408935547 28.730417251586914 L -7.415177345275879 28.72924041748047 L -7.092136383056641 28.672000885009766 L -6.840161323547363 28.627351760864258 L -6.822999954223633 28.624000549316406 L -6.821302890777588 28.62401008605957 L -6.226758003234863 28.62782859802246 L -6.199999809265137 28.628000259399414 L -5.698999881744385 28.45599937438965 L -5.61299991607666 28.42799949645996 L -5.5832953453063965 28.404150009155273 L -5.125999927520752 28.03700065612793 L -4.802999973297119 27.506999969482422 L -4.75 27.22800064086914 L -4.682000160217285 26.895000457763672 L -4.684144496917725 26.881328582763672 L -4.7245097160339355 26.624000549316406 L -4.7779998779296875 26.283000946044922 L -5.060999870300293 25.76300048828125 L -5.076000213623047 25.735000610351562 L -5.076453685760498 25.734603881835938 L -5.545000076293945 25.326000213623047 L -6.120999813079834 25.09000015258789 L -6.644000053405762 24.756999969482422 L -6.781635284423828 24.576000213623047 L -7.008999824523926 24.277000427246094 L -7.02400016784668 24.26300048828125 L -7.210000038146973 23.667999267578125 L -7.181000232696533 23.048999786376953 L -6.945000171661377 22.472000122070312 L -6.704999923706055 22.214000701904297 L -6.526000022888184 22.013999938964844 L -6.51235294342041 22.00690460205078 L -5.973999977111816 21.726999282836914 L -5.363864898681641 21.64617347717285 L -5.355000019073486 21.645000457763672 L -5.35099983215332 21.64900016784668 L -4.75 21.7810001373291 L -4.172999858856201 22.020999908447266 L -4.0960001945495605 22.026269912719727 L -3.6470000743865967 22.05699920654297 L -3.553999900817871 22.06399917602539 L -2.9560000896453857 21.888999938964844 L -2.4539999961853027 21.520000457763672 L -2.1110000610351562 21.003999710083008 L -1.9836809635162354 20.479999542236328 L -1.9639999866485596 20.39900016784668 L -2.021573781967163 19.873640060424805 L -2.0280001163482666 19.815000534057617 L -2.0320000648498535 19.783000946044922 L -2.303999900817871 19.224000930786133 L -2.747999906539917 18.784000396728516 L -2.7839999198913574 18.729999542236328 L -3.1019999980926514 18.274999618530273 L -3.111955404281616 18.238067626953125 L -3.2639999389648438 17.673999786376953 L -3.2100000381469727 17.054000854492188 L -2.947999954223633 16.492000579833984 L -2.8399999141693115 16.384000778198242 L -2.507999897003174 16.052000045776367 L -1.9459999799728394 15.789999961853027 L -1.6629999876022339 15.765000343322754 L -1.3259999752044678 15.736000061035156 L -0.7250000238418579 15.89799976348877 L -0.2160000056028366 16.25200080871582 L -0.08518918603658676 16.384000778198242 L 0 16.46996307373047 L 0.2240000069141388 16.695999145507812 L 0.6970000267028809 16.929000854492188 L 0.7829999923706055 16.968000411987305 L 1.3990000486373901 17.035999298095703 L 2.003999948501587 16.888999938964844 L 2.5199999809265137 16.54599952697754 L 2.6390795707702637 16.384000778198242 L 2.8889999389648438 16.04400062561035 L 3.052999973297119 15.479000091552734 L 3.0555508136749268 15.47134780883789 L 3.062056541442871 15.45182991027832 L 3.063999891281128 15.446000099182129 L 3.052999973297119 15.314000129699707 L 3.0209999084472656 14.82699966430664 L 2.7809998989105225 14.25 L 2.6449999809265137 13.645000457763672 L 2.7257821559906006 13.03519344329834 L 2.7269999980926514 13.026000022888184 L 2.805999994277954 12.878999710083008 L 2.883131742477417 12.728816032409668 L 3.0139999389648438 12.473999977111816 L 3.4189999103546143 12.104999542236328 L 3.4702978134155273 12.056605339050293 L 3.470499038696289 12.056415557861328 L 3.4727249145507812 12.05472469329834 L 3.500999927520752 12.043999671936035 L 4.048999786376953 11.819000244140625 L 4.0960001945495605 11.816798210144043 L 4.668000221252441 11.789999961853027 L 5.263000011444092 11.97599983215332 L 5.754060745239258 12.353738784790039 L 5.756999969482422 12.355999946594238 L 5.854000091552734 12.510000228881836 L 6.090000152587891 12.878999710083008 L 6.326000213623047 13.454999923706055 L 6.735000133514404 13.923999786376953 L 6.770796775817871 13.943466186523438 L 7.2829999923706055 14.222000122070312 L 7.894999980926514 14.317999839782715 L 8.192000389099121 14.259279251098633 L 8.506999969482422 14.196999549865723 L 8.958000183105469 13.920999526977539 L 9.036999702453613 13.87399959564209 L 9.039124488830566 13.871354103088379 L 9.405531883239746 13.414983749389648 L 9.428000450134277 13.38700008392334 L 9.480999946594238 13.232999801635742 L 9.628000259399414 12.800000190734863 L 9.62399959564209 12.177000045776367 L 9.732000350952148 11.5649995803833 L 9.800000190734863 11.449999809265137 L 10.043000221252441 11.027000427246094 M 0.9674673676490784 32.23139953613281 L 0.9712854027748108 32.24762725830078 L 0.9918374419212341 32.302433013916016 L 1.0085117816925049 32.34689712524414 L 1.152532935142517 32.768001556396484 L 1.4600000381469727 33.66699981689453 L 1.480044960975647 33.72808837890625 L 2.000258684158325 35.24195861816406 L 2.002199649810791 35.24454879760742 L 2.003122329711914 35.24577713012695 L 2.0508482456207275 35.38609313964844 L 2.0789999961853027 35.46799850463867 L 2.134833812713623 35.539939880371094 L 2.1778757572174072 35.5949821472168 L 2.254894256591797 35.69798278808594 L 3.191178798675537 36.90058517456055 L 3.2180888652801514 36.933990478515625 L 3.4509999752044678 37.22999954223633 L 3.490901231765747 37.28289031982422 L 3.8061816692352295 37.68718719482422 L 4.0792107582092285 38.03730010986328 L 4.16829252243042 38.15329360961914 L 4.223999977111816 38.224998474121094 L 4.245825290679932 38.24015808105469 L 4.2585530281066895 38.24899673461914 L 4.260000228881836 38.25 L 4.262424945831299 38.25152587890625 L 4.29833984375 38.27499008178711 L 6.951475143432617 40.00847625732422 L 7.015850067138672 40.0505485534668 L 7.021299839019775 40.05412673950195 L 7.0243000984191895 40.05605697631836 L 7.150000095367432 40.137001037597656 L 7.203644275665283 40.15190124511719 L 7.203999996185303 40.152000427246094 L 7.206500053405762 40.152626037597656 L 8.192000389099121 40.402408599853516 L 10.307000160217285 40.9384765625 L 10.386224746704102 40.958526611328125 L 10.392476081848145 40.959999084472656 L 10.472999572753906 40.979000091552734 L 10.535304069519043 40.996253967285156 L 10.538000106811523 40.99700164794922 L 10.538189888000488 40.99698257446289 L 10.666999816894531 40.986000061035156 L 10.667699813842773 40.985923767089844 L 10.674432754516602 40.98536682128906 L 10.74209976196289 40.97975158691406 L 10.980366706848145 40.959999084472656 L 13.859174728393555 40.72137451171875 L 13.867950439453125 40.72064971923828 L 13.868363380432129 40.720611572265625 L 13.928044319152832 40.71532440185547 L 14.022000312805176 40.707000732421875 L 14.028498649597168 40.704471588134766 L 14.039999961853027 40.70000076293945 L 14.04312515258789 40.698551177978516 L 16.384000778198242 39.6718635559082 L 16.966482162475586 39.4163932800293 L 17.004199981689453 39.39984893798828 L 17.078500747680664 39.36727523803711 L 17.136999130249023 39.3390007019043 L 17.222925186157227 39.30303192138672 L 17.222999572753906 39.303001403808594 L 17.225875854492188 39.300323486328125 L 17.450124740600586 39.094600677490234 L 17.509925842285156 39.03952407836914 L 19.677349090576172 37.041751861572266 L 19.729999542236328 36.99300003051758 L 19.795000076293945 36.93600082397461 L 19.8011531829834 36.92449951171875 L 19.852937698364258 36.82870101928711 L 19.934751510620117 36.67475509643555 L 19.940319061279297 36.664276123046875 L 19.94804573059082 36.64990234375 L 20.061527252197266 36.43877410888672 L 20.104747772216797 36.35797119140625 L 20.753999710083008 35.15999984741211 L 20.785005569458008 35.102684020996094 L 20.85477066040039 34.973960876464844 L 21.34311866760254 34.07290267944336 L 21.41358757019043 33.942298889160156 L 21.45599937438965 33.86399841308594 L 21.456398010253906 33.861629486083984 L 21.46387481689453 33.816993713378906 L 21.464054107666016 33.815921783447266 L 21.46867561340332 33.78833770751953 L 21.470993041992188 33.77449417114258 L 21.4852294921875 33.6852912902832 L 21.505157470703125 33.56666564941406 L 21.515596389770508 33.502132415771484 L 21.63912010192871 32.768001556396484 L 21.75 32.10900115966797 L 21.78036880493164 31.915403366088867 L 21.991046905517578 30.651334762573242 L 22.014263153076172 30.524837493896484 L 22.01856803894043 30.501392364501953 L 22.0255069732666 30.459854125976562 L 22.033000946044922 30.415000915527344 L 22.017915725708008 30.324594497680664 L 21.99040412902832 30.168060302734375 L 21.73900032043457 28.652999877929688 L 21.725717544555664 28.571413040161133 L 21.643321990966797 28.08264923095703 L 21.494903564453125 27.202260971069336 L 21.49473762512207 27.201234817504883 L 21.47052001953125 27.05255699157715 L 21.45599937438965 26.965999603271484 L 21.454124450683594 26.9625244140625 L 21.370275497436523 26.809450149536133 L 21.332950592041016 26.74049949645996 L 20.16295051574707 24.576000213623047 L 19.872549057006836 24.038759231567383 L 19.87044906616211 24.034875869750977 L 19.868125915527344 24.030500411987305 L 19.82285499572754 23.945995330810547 L 19.798385620117188 23.900320053100586 L 19.795000076293945 23.893999099731445 L 19.729999542236328 23.836999893188477 L 19.728649139404297 23.835750579833984 L 19.67307472229004 23.78452491760254 L 17.34087562561035 21.636600494384766 L 17.335124969482422 21.631324768066406 L 17.235450744628906 21.538583755493164 L 17.226327896118164 21.53009605407715 L 17.222999572753906 21.527000427246094 L 17.140398025512695 21.492422103881836 L 17.136999130249023 21.490999221801758 L 17.135499954223633 21.49027442932129 L 16.384000778198242 21.160799026489258 L 14.237799644470215 20.219850540161133 L 14.161874771118164 20.18655014038086 L 14.039999961853027 20.1299991607666 L 14.022000312805176 20.12299919128418 L 14.018050193786621 20.122650146484375 L 14.0157470703125 20.122459411621094 L 13.675825119018555 20.094375610351562 L 13.59589958190918 20.087749481201172 L 10.956872940063477 19.868717193603516 L 10.694299697875977 19.846925735473633 L 10.666999816894531 19.8439998626709 L 10.538000106811523 19.83300018310547 L 10.535353660583496 19.83373260498047 L 10.534442901611328 19.833984375 L 10.474597930908203 19.850557327270508 L 10.472999572753906 19.85099983215332 L 10.47077465057373 19.851524353027344 L 8.192000389099121 20.42823028564453 L 7.987436771392822 20.479999542236328 L 7.38100004196167 20.633474349975586 L 7.333586692810059 20.645492553710938 L 7.301499843597412 20.65362548828125 L 7.2916178703308105 20.656095504760742 L 7.276486396789551 20.65987777709961 L 7.203999996185303 20.67799949645996 L 7.152172088623047 20.69239616394043 L 7.150000095367432 20.69300079345703 L 7.090864181518555 20.731658935546875 L 6.387982368469238 21.191219329833984 L 6.234670639038086 21.291786193847656 L 5.463892936706543 21.795324325561523 L 5.411148548126221 21.82837677001953 L 4.815164089202881 22.219127655029297 L 4.581999778747559 22.371999740600586 L 4.551259994506836 22.39153289794922 L 4.514486789703369 22.414899826049805 L 4.423765659332275 22.475379943847656 L 4.355548858642578 22.518278121948242 L 4.330231666564941 22.535860061645508 L 4.223999977111816 22.604999542236328 L 4.222277641296387 22.607208251953125 L 4.216116428375244 22.6151065826416 L 4.172488212585449 22.671039581298828 L 4.012706756591797 22.878376007080078 L 3.1710000038146973 23.954999923706055 L 3.03879976272583 24.128097534179688 L 2.6902496814727783 24.576000213623047 L 2.2246742248535156 25.174285888671875 L 2.2113592624664307 25.18760108947754 L 2.150238513946533 25.26934051513672 L 2.13997745513916 25.283063888549805 L 2.1324193477630615 25.293170928955078 L 2.0834643840789795 25.35624885559082 L 2.0789999961853027 25.36199951171875 L 1.9222131967544556 25.81855010986328 L 1.9163920879364014 25.83684539794922 L 1.425963044166565 27.264080047607422 L 1.1480000019073486 28.072999954223633 L 1.1213890314102173 28.147844314575195 L 1.0199346542358398 28.44222640991211 L 1.0141135454177856 28.46634292602539 L 0.9814096689224243 28.55837059020996 L 0.9783549904823303 28.566967010498047 L 0.9440000057220459 28.66699981689453 L 0.9440000057220459 28.667104721069336 L 0.9440000057220459 28.67232894897461 L 0.9440000057220459 28.684999465942383 L 0.9440000057220459 32.16299819946289 L 0.9674673676490784 32.23139953613281 z" fill="none" stroke="rgb(0,0,0)" stroke-width="0.1mm" />
</svg>