<?xml version="1.0" standalone="no"?>
<!DOCTYPE svg PUBLIC "-//W3C//DTD SVG 1.1//EN"
  "http://www.w3.org/Graphics/SVG/1.1/DTD/svg11.dtd">
<svg width="12mm" height="12.000000953674316mm" viewBox="-9.585000038146973 9.414999961853027 12 12.000000953674316" xmlns="http://www.w3.org/2000/svg" version="1.1">
	<title>svgOutput</title>
	<desc>made with tinkercad</desc>
<path d="M -7.241000175476074 12.074999809265137 L -7.183021545410156 11.949231147766113 L -7.176000118255615 11.934000015258789 L -7.065999984741211 11.824000358581543 L -6.925000190734863 11.758999824523926 L -6.870136260986328 11.754364013671875 L -6.8582611083984375 11.7533597946167 L -6.854000091552734 11.753000259399414 L -6.769999980926514 11.744999885559082 L -6.619999885559082 11.78600025177002 L -6.493000030517578 11.87399959564209 L -6.382999897003174 11.984999656677246 L -6.263999938964844 12.043000221252441 L -6.243000030517578 12.053000450134277 L -6.233091831207275 12.054093360900879 L -6.144000053405762 12.063928604125977 L -6.089000225067139 12.069999694824219 L -5.938000202178955 12.034000396728516 L -5.809000015258789 11.947999954223633 L -5.7170000076293945 11.821999549865723 L -5.675000190734863 11.680999755859375 L -5.674407482147217 11.678630828857422 L -5.672999858856201 11.67300033569336 L -5.675000190734863 11.640000343322754 L -5.683000087738037 11.517999649047852 L -5.743000030517578 11.37399959564209 L -5.767768383026123 11.263999938964844 L -5.7769999504089355 11.222999572753906 L -5.757318019866943 11.070463180541992 L -5.756999969482422 11.067999839782715 L -5.736999988555908 11.031000137329102 L -5.684999942779541 10.930000305175781 L -5.584000110626221 10.838000297546387 L -5.571368217468262 10.82536792755127 L -5.570825099945068 10.824925422668457 L -5.56859827041626 10.823970794677734 L -5.564000129699707 10.821999549865723 L -5.427000045776367 10.765999794006348 L -5.271999835968018 10.758999824523926 L -5.123000144958496 10.805000305175781 L -5.119999885559082 10.807316780090332 L -5 10.899999618530273 L -4.974999904632568 10.939000129699707 L -4.915999889373779 11.031000137329102 L -4.91595458984375 11.031110763549805 L -4.85699987411499 11.175000190734863 L -4.755000114440918 11.291999816894531 L -4.745321273803711 11.297298431396484 L -4.618000030517578 11.366999626159668 L -4.465000152587891 11.390999794006348 L -4.311999797821045 11.359999656677246 L -4.198999881744385 11.291000366210938 L -4.178999900817871 11.279999732971191 L -4.177126407623291 11.277643203735352 L -4.0960001945495605 11.17560863494873 L -4.0877461433410645 11.165226936340332 L -4.081999778747559 11.157999992370605 L -4.067999839782715 11.119999885559082 L -4.0320000648498535 11.01099967956543 L -4.0329999923706055 10.854999542236328 L -4.00600004196167 10.70199966430664 L -3.989000082015991 10.673999786376953 L -3.927999973297119 10.567999839782715 L -3.9211459159851074 10.562240600585938 L -3.8694334030151367 10.518784523010254 L -3.8362152576446533 10.490869522094727 L -3.809000015258789 10.468000411987305 L -3.680000066757202 10.420999526977539 L -3.6634814739227295 10.415169715881348 L -3.6628000736236572 10.414999961853027 L -3.5840001106262207 10.414999961853027 L -3.506999969482422 10.414999961853027 L -3.3610000610351562 10.468000411987305 L -3.242000102996826 10.567999839782715 L -3.1640000343322754 10.70199966430664 L -3.1559998989105225 10.748000144958496 L -3.13700008392334 10.854999542236328 L -3.1370139122009277 10.857170104980469 L -3.138000011444092 11.01099967956543 L -3.0880000591278076 11.157999992370605 L -3.083770513534546 11.16331958770752 L -3.072000026702881 11.178123474121094 L -2.990999937057495 11.279999732971191 L -2.8580000400543213 11.359999656677246 L -2.7960000038146973 11.373000144958496 L -2.784543991088867 11.375266075134277 L -2.7049999237060547 11.390999794006348 L -2.552000045776367 11.366999626159668 L -2.4254705905914307 11.29773235321045 L -2.415066719055176 11.292037010192871 L -2.4149999618530273 11.291999816894531 L -2.388000011444092 11.26099967956543 L -2.312999963760376 11.175000190734863 L -2.253999948501587 11.031000137329102 L -2.200000047683716 10.946999549865723 L -2.1701300144195557 10.900203704833984 L -2.1700000762939453 10.899999618530273 L -2.1440000534057617 10.880000114440918 L -2.0480000972747803 10.80577278137207 L -2.046999931335449 10.805000305175781 L -1.8980000019073486 10.758999824523926 L -1.7610000371932983 10.765000343322754 L -1.7435097694396973 10.765972137451172 L -1.7434215545654297 10.765984535217285 L -1.7428250312805176 10.766075134277344 L -1.7359999418258667 10.769000053405762 L -1.720309853553772 10.775374412536621 L -1.668826699256897 10.796457290649414 L -1.608597755432129 10.821069717407227 L -1.5989999771118164 10.824999809265137 L -1.5988956689834595 10.825096130371094 L -1.4850000143051147 10.930000305175781 L -1.4129999876022339 11.067999839782715 L -1.3930000066757202 11.222999572753906 L -1.4023182392120361 11.263999938964844 L -1.402999997138977 11.267000198364258 L -1.4270000457763672 11.37399959564209 L -1.4869999885559082 11.517999649047852 L -1.496999979019165 11.67300033569336 L -1.4953322410583496 11.678647994995117 L -1.4529999494552612 11.821999549865723 L -1.3730000257492065 11.932000160217285 L -1.3625541925430298 11.945927619934082 L -1.3613412380218506 11.947545051574707 L -1.3609249591827393 11.94802474975586 L -1.3580000400543213 11.949000358581543 L -1.2319999933242798 12.034000396728516 L -1.0809999704360962 12.069999694824219 L -1.0240000486373901 12.06370735168457 L -0.9369080066680908 12.054093360900879 L -0.9269999861717224 12.053000450134277 L -0.8889999985694885 12.03499984741211 L -0.7870000004768372 11.984999656677246 L -0.6769999861717224 11.87399959564209 L -0.550000011920929 11.78600025177002 L -0.5180000066757202 11.777000427246094 L -0.4000000059604645 11.744999885559082 L -0.3133634924888611 11.752824783325195 L -0.25454121828079224 11.758138656616211 L -0.24500000476837158 11.758999824523926 L -0.11999999731779099 11.817000389099121 L -0.10400000214576721 11.824000358581543 L 0 11.928000450134277 L 0.006000000052154064 11.934000015258789 L 0.07003970444202423 12.072916984558105 L 0.07100000232458115 12.074999809265137 L 0.07699999958276749 12.145999908447266 L 0.08500000089406967 12.229999542236328 L 0.06914666295051575 12.288000106811523 L 0.04399999976158142 12.380000114440918 L 0 12.443499565124512 L -0.04399999976158142 12.506999969482422 L -0.1550000011920929 12.616999626159668 L -0.22300000488758087 12.756999969482422 L -0.23999999463558197 12.91100025177002 L -0.20399999618530273 13.062000274658203 L -0.11800000071525574 13.190999984741211 L 2.530767792663477e-15 13.277158737182617 L 0.00800000037997961 13.282999992370605 L 0.10535714030265808 13.312000274658203 L 0.14900000393390656 13.324999809265137 L 0.15700000524520874 13.32699966430664 L 0.31200000643730164 13.317000389099121 L 0.3240000009536743 13.312000274658203 L 0.4560000002384186 13.256999969482422 L 0.6069999933242798 13.222999572753906 L 0.6480000019073486 13.227999687194824 L 0.7620000243186951 13.243000030517578 L 0.8942499756813049 13.312000274658203 L 0.8999999761581421 13.3149995803833 L 1.0049999952316284 13.428999900817871 L 1.0640000104904175 13.572999954223633 L 1.0709999799728394 13.727999687194824 L 1.024999976158142 13.876999855041504 L 0.9309962391853333 13.998709678649902 L 0.9300000071525574 14 L 0.9290000200271606 14 L 0.7990000247955322 14.083999633789062 L 0.6549999713897705 14.142999649047852 L 0.5559999942779541 14.229999542236328 L 0.5379999876022339 14.244999885559082 L 0.5371368527412415 14.246576309204102 L 0.4881824851036072 14.336000442504883 L 0.46299999952316284 14.381999969482422 L 0.4390000104904175 14.53499984741211 L 0.453000009059906 14.604999542236328 L 0.4699999988079071 14.687999725341797 L 0.550000011920929 14.821000099182129 L 0.6660000085830688 14.913000106811523 L 0.671999990940094 14.918000221252441 L 0.672532856464386 14.918181419372559 L 0.8190000057220459 14.968000411987305 L 0.9750000238418579 14.967000007629395 L 1.128000020980835 14.994000434875488 L 1.2619999647140503 15.071999549865723 L 1.3619999885559082 15.190999984741211 L 1.4149999618530273 15.336999893188477 L 1.4149999618530273 15.359999656677246 L 1.4149999618530273 15.493000030517578 L 1.3619999885559082 15.638999938964844 L 1.2619999647140503 15.758000373840332 L 1.128000020980835 15.836000442504883 L 0.6660000085830688 15.916999816894531 L 0.550000011920929 16.009000778198242 L 0.4699999988079071 16.142000198364258 L 0.4560000002384186 16.211999893188477 L 0.4390000104904175 16.295000076293945 L 0.4391758143901825 16.29612159729004 L 0.4529607892036438 16.384000778198242 L 0.46299999952316284 16.447999954223633 L 0.532383143901825 16.57503890991211 L 0.5339999794960022 16.577999114990234 L 0.5379999876022339 16.584999084472656 L 0.6549999713897705 16.687000274658203 L 0.7990000247955322 16.746000289916992 L 0.9300000071525574 16.829999923706055 L 1.024999976158142 16.952999114990234 L 1.0488935708999634 17.030393600463867 L 1.0709999799728394 17.101999282836914 L 1.0640000104904175 17.256999969482422 L 1.0049999952316284 17.400999069213867 L 1.0045591592788696 17.401477813720703 L 0.9985526204109192 17.408000946044922 L 0.8999999761581421 17.514999389648438 L 0.8408375382423401 17.54505157470703 L 0.8370000123977661 17.547000885009766 L 0.7620000243186951 17.586999893188477 L 0.6069999933242798 17.60700035095215 L 0.4560000002384186 17.572999954223633 L 0.31200000643730164 17.51300048828125 L 0.18000000715255737 17.5049991607666 L 0.15700000524520874 17.503000259399414 L 0.1552971452474594 17.503503799438477 L 0.00800000037997961 17.547000885009766 L 0 17.552841186523438 L -0.11800000071525574 17.638999938964844 L -0.20399999618530273 17.76799964904785 L -0.23999999463558197 17.91900062561035 L -0.2240000069141388 18.065000534057617 L -0.22300000488758087 18.072999954223633 L -0.1550000011920929 18.21299934387207 L -0.04399999976158142 18.322999954223633 L 0 18.386499404907227 L 0.0315275602042675 18.43199920654297 L 0.04399999976158142 18.450000762939453 L 0.08500000089406967 18.600000381469727 L 0.08100000023841858 18.641000747680664 L 0.07100000232458115 18.7549991607666 L 0.0695793405175209 18.7580623626709 L 0.013000000268220901 18.8799991607666 L 0.006198232993483543 18.895545959472656 L 0.005849999841302633 18.89612579345703 L 0.005230597220361233 18.896743774414062 L 0 18.901975631713867 L -0.10140000283718109 19.003374099731445 L -0.10400000214576721 19.006000518798828 L -0.24500000476837158 19.070999145507812 L -0.3199999928474426 19.077999114990234 L -0.4000000059604645 19.084999084472656 L -0.550000011920929 19.04400062561035 L -0.5879999995231628 19.01799964904785 L -0.6769999861717224 18.95599937438965 L -0.7870000004768372 18.844999313354492 L -0.875 18.802000045776367 L -0.9269999861717224 18.777000427246094 L -1.0130000114440918 18.767000198364258 L -1.0240000486373901 18.765867233276367 L -1.0809999704360962 18.760000228881836 L -1.2319999933242798 18.79599952697754 L -1.3609999418258667 18.881999969482422 L -1.4529999494552612 19.007999420166016 L -1.496999979019165 19.156999588012695 L -1.4950000047683716 19.197999954223633 L -1.4869999885559082 19.312000274658203 L -1.4270000457763672 19.45599937438965 L -1.3930000066757202 19.60700035095215 L -1.3969999551773071 19.641000747680664 L -1.4129999876022339 19.761999130249023 L -1.4850000143051147 19.899999618530273 L -1.49399995803833 19.908000946044922 L -1.556886076927185 19.965417861938477 L -1.5657721757888794 19.97430419921875 L -1.5986318588256836 20.00463104248047 L -1.599174976348877 20.005075454711914 L -1.6013333797454834 20.006000518798828 L -1.6059999465942383 20.007999420166016 L -1.6069257259368896 20.008378982543945 L -1.7430000305175781 20.06399917602539 L -1.8980000019073486 20.070999145507812 L -2.046999931335449 20.024999618530273 L -2.0480000972747803 20.024227142333984 L -2.169978380203247 19.930017471313477 L -2.1700000762939453 19.93000030517578 L -2.194999933242798 19.891000747680664 L -2.253999948501587 19.798999786376953 L -2.312999963760376 19.655000686645508 L -2.4149999618530273 19.538000106811523 L -2.552000045776367 19.46299934387207 L -2.7049999237060547 19.43899917602539 L -2.784785509109497 19.45516586303711 L -2.8580000400543213 19.469999313354492 L -2.990999937057495 19.549999237060547 L -3.072000026702881 19.65187644958496 L -3.0801033973693848 19.662067413330078 L -3.0880000591278076 19.672000885009766 L -3.1019999980926514 19.709999084472656 L -3.138000011444092 19.819000244140625 L -3.13700008392334 19.975000381469727 L -3.1549999713897705 20.073999404907227 L -3.1635217666625977 20.12512969970703 L -3.1640000343322754 20.128000259399414 L -3.180999994277954 20.1560001373291 L -3.193354606628418 20.17717933654785 L -3.234830379486084 20.249540328979492 L -3.2389423847198486 20.25666618347168 L -3.242000102996826 20.261999130249023 L -3.3005666732788086 20.311216354370117 L -3.333784818649292 20.339130401611328 L -3.3610000610351562 20.36199951171875 L -3.490000009536743 20.409000396728516 L -3.506518602371216 20.41482925415039 L -3.507200002670288 20.415000915527344 L -3.5840001106262207 20.415000915527344 L -3.6630001068115234 20.415000915527344 L -3.809000015258789 20.36199951171875 L -3.8626370429992676 20.316926956176758 L -3.927999973297119 20.261999130249023 L -4.00600004196167 20.128000259399414 L -4.013999938964844 20.082000732421875 L -4.0329999923706055 19.975000381469727 L -4.032986164093018 19.972829818725586 L -4.0320000648498535 19.819000244140625 L -4.081999778747559 19.672000885009766 L -4.08622932434082 19.66668128967285 L -4.0960001945495605 19.65439224243164 L -4.178999900817871 19.549999237060547 L -4.296000003814697 19.479000091552734 L -4.311544895172119 19.470256805419922 L -4.312099933624268 19.469974517822266 L -4.315999984741211 19.4689998626709 L -4.465000152587891 19.43899917602539 L -4.618000030517578 19.46299934387207 L -4.7549333572387695 19.5379638671875 L -4.755000114440918 19.538000106811523 L -4.7820000648498535 19.569000244140625 L -4.85699987411499 19.655000686645508 L -4.880000114440918 19.70800018310547 L -4.915999889373779 19.798999786376953 L -4.926799297332764 19.815841674804688 L -5 19.93000030517578 L -5.026000022888184 19.950000762939453 L -5.119999885559082 20.022680282592773 L -5.123000144958496 20.024999618530273 L -5.271999835968018 20.070999145507812 L -5.408999919891357 20.065000534057617 L -5.427000045776367 20.06399917602539 L -5.571000099182129 20.0049991607666 L -5.681855201721191 19.902896881103516 L -5.684999942779541 19.899999618530273 L -5.7170000076293945 19.836999893188477 L -5.756999969482422 19.761999130249023 L -5.7769999504089355 19.60700035095215 L -5.743000030517578 19.45599937438965 L -5.683000087738037 19.312000274658203 L -5.672999858856201 19.156999588012695 L -5.7170000076293945 19.007999420166016 L -5.809000015258789 18.881999969482422 L -5.938000202178955 18.79599952697754 L -6.089000225067139 18.760000228881836 L -6.144000053405762 18.765789031982422 L -6.203000068664551 18.77199935913086 L -6.232837200164795 18.77573013305664 L -6.243000030517578 18.777000427246094 L -6.382999897003174 18.844999313354492 L -6.493000030517578 18.95599937438965 L -6.619999885559082 19.04400062561035 L -6.6579999923706055 19.05500030517578 L -6.769999980926514 19.084999084472656 L -6.860321521759033 19.076841354370117 L -6.925000190734863 19.070999145507812 L -7.065999984741211 19.006000518798828 L -7.176000118255615 18.895999908447266 L -7.177035331726074 18.893754959106445 L -7.214000225067139 18.813570022583008 L -7.241000175476074 18.7549991607666 L -7.255000114440918 18.600000381469727 L -7.214000225067139 18.450000762939453 L -7.214000225067139 18.448999404907227 L -7.202126979827881 18.43199920654297 L -7.168000221252441 18.383136749267578 L -7.125999927520752 18.322999954223633 L -7.014999866485596 18.21299934387207 L -6.956999778747559 18.0939998626709 L -6.947000026702881 18.072999954223633 L -6.929999828338623 17.91900062561035 L -6.966000080108643 17.76799964904785 L -7.052000045776367 17.638999938964844 L -7.103000164031982 17.60099983215332 L -7.168000221252441 17.55419921875 L -7.177999973297119 17.547000885009766 L -7.318999767303467 17.5049991607666 L -7.327000141143799 17.503000259399414 L -7.48199987411499 17.51300048828125 L -7.625999927520752 17.572999954223633 L -7.7769999504089355 17.60700035095215 L -7.932000160217285 17.586999893188477 L -8.069999694824219 17.514999389648438 L -8.114999771118164 17.46500015258789 L -8.168437957763672 17.408000946044922 L -8.175000190734863 17.400999069213867 L -8.192000389099121 17.359508514404297 L -8.234000205993652 17.256999969482422 L -8.23900032043457 17.132999420166016 L -8.241000175476074 17.101999282836914 L -8.240336418151855 17.099851608276367 L -8.194999694824219 16.952999114990234 L -8.192000389099121 16.949115753173828 L -8.100996017456055 16.831289291381836 L -8.100000381469727 16.829999923706055 L -8.098999977111816 16.829999923706055 L -7.968999862670898 16.746000289916992 L -7.923999786376953 16.72800064086914 L -7.835734844207764 16.69144630432129 L -7.824999809265137 16.687000274658203 L -7.72599983215332 16.600000381469727 L -7.708000183105469 16.584999084472656 L -7.7015228271484375 16.57316780090332 L -7.632999897003174 16.447999954223633 L -7.623237133026123 16.384000778198242 L -7.614999771118164 16.329999923706055 L -7.609000205993652 16.295000076293945 L -7.623000144958496 16.225000381469727 L -7.639999866485596 16.142000198364258 L -7.71999979019165 16.009000778198242 L -7.835999965667725 15.916999816894531 L -7.8420000076293945 15.911999702453613 L -7.842533111572266 15.911818504333496 L -7.988999843597412 15.862000465393066 L -8.145000457763672 15.86299991607666 L -8.192000389099121 15.854705810546875 L -8.29800033569336 15.836000442504883 L -8.432000160217285 15.758000373840332 L -8.531999588012695 15.638999938964844 L -8.567000389099121 15.543000221252441 L -8.585000038146973 15.493000030517578 L -8.585000038146973 15.336999893188477 L -8.531999588012695 15.190999984741211 L -8.445965766906738 15.088618278503418 L -8.433201789855957 15.073430061340332 L -8.432000160217285 15.071999549865723 L -8.4286470413208 15.07005786895752 L -8.297170639038086 14.994094848632812 L -8.295867919921875 14.993864059448242 L -8.293758392333984 14.993489265441895 L -8.192000389099121 14.975431442260742 L -8.149283409118652 14.967851638793945 L -8.145000457763672 14.967000007629395 L -8.144503593444824 14.967002868652344 L -7.991943359375 14.967981338500977 L -7.988999843597412 14.968000411987305 L -7.86299991607666 14.925000190734863 L -7.8420000076293945 14.918000221252441 L -7.8341898918151855 14.911789894104004 L -7.71999979019165 14.821000099182129 L -7.639999866485596 14.687999725341797 L -7.625999927520752 14.618000030517578 L -7.609000205993652 14.53499984741211 L -7.609175682067871 14.533879280090332 L -7.632999897003174 14.381999969482422 L -7.658123016357422 14.336000442504883 L -7.703999996185303 14.251999855041504 L -7.708000183105469 14.244999885559082 L -7.824999809265137 14.142999649047852 L -7.968999862670898 14.083999633789062 L -8.100000381469727 14 L -8.190999984741211 13.880999565124512 L -8.192000389099121 13.880000114440918 L -8.194999694824219 13.876999855041504 L -8.241000175476074 13.727999687194824 L -8.234000205993652 13.572999954223633 L -8.192000389099121 13.470491409301758 L -8.175000190734863 13.428999900817871 L -8.114999771118164 13.364999771118164 L -8.069999694824219 13.3149995803833 L -8.066329956054688 13.313085556030273 L -8.064249992370605 13.312000274658203 L -7.932000160217285 13.243000030517578 L -7.7769999504089355 13.222999572753906 L -7.625999927520752 13.256999969482422 L -7.49399995803833 13.312000274658203 L -7.492549419403076 13.312603950500488 L -7.48199987411499 13.317000389099121 L -7.349999904632568 13.324999809265137 L -7.327000141143799 13.32699966430664 L -7.276204586029053 13.312000274658203 L -7.177999973297119 13.282999992370605 L -7.052000045776367 13.190999984741211 L -6.966000080108643 13.062000274658203 L -6.929999828338623 12.91100025177002 L -6.94573974609375 12.767375946044922 L -6.946000099182129 12.765000343322754 L -6.947000026702881 12.756999969482422 L -7.014999866485596 12.616999626159668 L -7.125999927520752 12.506999969482422 L -7.135000228881836 12.494000434875488 L -7.214000225067139 12.380000114440918 L -7.21405029296875 12.379816055297852 L -7.239146709442139 12.288000106811523 L -7.255000114440918 12.229999542236328 L -7.241000175476074 12.074999809265137 M -1.0626850128173828 16.203365325927734 L -1.0605136156082153 16.19106101989746 L -1.059838056564331 16.187232971191406 L -1.0010000467300415 15.838000297546387 L -0.9934080243110657 15.78960132598877 L -0.9412129521369934 15.473584175109863 L -0.9345699548721313 15.436573028564453 L -0.9314510226249695 15.417725563049316 L -0.9309999942779541 15.414999961853027 L -0.9347454905509949 15.392424583435059 L -0.941386342048645 15.353528022766113 L -0.9823095798492432 15.106128692626953 L -1.003999948501587 14.975000381469727 L -1.007794737815857 14.954129219055176 L -1.064029574394226 14.618731498718262 L -1.065271019935608 14.611327171325684 L -1.0713571310043335 14.574651718139648 L -1.0749926567077637 14.553043365478516 L -1.0750000476837158 14.553000450134277 L -1.0754749774932861 14.552124977111816 L -1.0958161354064941 14.51338005065918 L -1.0959500074386597 14.5131254196167 L -1.10527503490448 14.49590015411377 L -1.1918009519577026 14.336000442504883 L -1.470900058746338 13.82022476196289 L -1.4714750051498413 13.819125175476074 L -1.4778196811676025 13.807437896728516 L -1.4900000095367432 13.78499984741211 L -1.50600004196167 13.770000457763672 L -1.506350040435791 13.769700050354004 L -1.5202499628067017 13.7568998336792 L -2.0480000972747803 13.27151107788086 L -2.103300094604492 13.220649719238281 L -2.104724884033203 13.219325065612793 L -2.132620096206665 13.193353652954102 L -2.132999897003174 13.192999839782715 L -2.1540000438690186 13.184000015258789 L -2.154400110244751 13.18382453918457 L -2.8788249492645264 12.865975379943848 L -2.8977999687194824 12.857649803161621 L -2.928999900817871 12.843999862670898 L -2.92962908744812 12.843685150146484 L -2.9296510219573975 12.843674659729004 L -2.932413101196289 12.842293739318848 L -2.933000087738037 12.842000007629395 L -2.934000015258789 12.841899871826172 L -3.0197999477386475 12.835075378417969 L -3.0397748947143555 12.83342456817627 L -3.7651751041412354 12.772974967956543 L -3.7720000743865967 12.772000312805176 L -3.7915000915527344 12.770781517028809 L -3.803999900817871 12.770000457763672 L -3.80489444732666 12.770223617553711 L -3.819999933242798 12.77400016784668 L -3.820574998855591 12.774125099182129 L -3.825981855392456 12.775495529174805 L -4.0960001945495605 12.8439359664917 L -4.59375 12.970100402832031 L -4.599585056304932 12.971582412719727 L -4.602191925048828 12.972245216369629 L -4.6136250495910645 12.975150108337402 L -4.638000011444092 12.980999946594238 L -4.6504693031311035 12.983877182006836 L -4.651000022888184 12.984000205993652 L -4.665806293487549 12.99367618560791 L -4.8415045738220215 13.10862922668457 L -4.880184173583984 13.133946418762207 L -5.072878360748291 13.259830474853516 L -5.086240291595459 13.268270492553711 L -5.1775054931640625 13.328182220458984 L -5.293000221252441 13.404000282287598 L -5.305976390838623 13.412110328674316 L -5.309878349304199 13.414548873901367 L -5.333086013793945 13.430020332336426 L -5.349964618682861 13.440569877624512 L -5.356293678283691 13.444788932800293 L -5.382999897003174 13.461999893188477 L -5.3839592933654785 13.46323299407959 L -5.395865440368652 13.478534698486328 L -5.4358110427856445 13.530843734741211 L -5.645999908447266 13.800000190734863 L -5.679287910461426 13.84375 L -5.882819175720215 14.10434627532959 L -5.905645370483398 14.134780883789062 L -5.905714988708496 14.134870529174805 L -5.919000148773193 14.152000427246094 L -5.923261642456055 14.164401054382324 L -5.95823860168457 14.266180038452148 L -5.959901809692383 14.27033805847168 L -5.982439994812012 14.336000442504883 L -6.144000053405762 14.806693077087402 L -6.1519999504089355 14.829999923706055 L -6.1586527824401855 14.848295211791992 L -6.183600425720215 14.922307014465332 L -6.185263633728027 14.928128242492676 L -6.188969135284424 14.938233375549316 L -6.194411277770996 14.953075408935547 L -6.203000068664551 14.977999687194824 L -6.203000068664551 15.359999656677246 L -6.203000068664551 15.849745750427246 L -6.203000068664551 15.85200023651123 L -6.1971330642700195 15.869100570678711 L -6.196178436279297 15.872918128967285 L -6.192887306213379 15.881476402282715 L -6.186633586883545 15.897735595703125 L -6.144000053405762 16.02274513244629 L -6.073999881744385 16.22800064086914 L -6.068273067474365 16.24327278137207 L -6.020063877105713 16.384000778198242 L -5.93845796585083 16.622217178344727 L -5.938214302062988 16.622217178344727 L -5.937503337860107 16.622217178344727 L -5.92604923248291 16.657533645629883 L -5.919000148773193 16.67799949645996 L -5.905041694641113 16.69599723815918 L -5.894280910491943 16.709781646728516 L -5.892220973968506 16.712528228759766 L -5.8747944831848145 16.735763549804688 L -5.665674209594727 17.0046329498291 L -5.647450923919678 17.02806282043457 L -5.634459972381592 17.04476547241211 L -5.576000213623047 17.118999481201172 L -5.565792560577393 17.131990432739258 L -5.419179439544678 17.320362091064453 L -5.396908760070801 17.350055694580078 L -5.382999897003174 17.368000030517578 L -5.381131649017334 17.369245529174805 L -5.377449989318848 17.371700286865234 L -5.374000072479248 17.374000549316406 L -5.3734002113342285 17.374374389648438 L -4.700650215148926 17.813125610351562 L -4.684549808502197 17.823650360107422 L -4.683175086975098 17.82455062866211 L -4.651000022888184 17.84600067138672 L -4.650079727172852 17.84621238708496 L -4.638000011444092 17.849000930786133 L -4.6373748779296875 17.849149703979492 L -4.0960001945495605 17.98670768737793 L -4.024307727813721 18.00492286682129 L -3.8622500896453857 18.046100616455078 L -3.8424251079559326 18.051124572753906 L -3.819999933242798 18.055999755859375 L -3.803999900817871 18.059999465942383 L -3.7720000743865967 18.058000564575195 L -3.771825075149536 18.05797576904297 L -3.753225088119507 18.056425094604492 L -2.9742000102996826 17.992074966430664 L -2.9719998836517334 17.991899490356445 L -2.9716134071350098 17.99186134338379 L -2.937375068664551 17.98843765258789 L -2.933000087738037 17.988000869750977 L -2.928999900817871 17.986000061035156 L -2.9282000064849854 17.98564910888672 L -2.7653191089630127 17.914188385009766 L -2.1881749629974365 17.660974502563477 L -2.169600009918213 17.65282440185547 L -2.1540000438690186 17.645999908447266 L -2.1339921951293945 17.63742446899414 L -2.132999897003174 17.636999130249023 L -2.132275104522705 17.63632583618164 L -2.0785865783691406 17.58640480041504 L -2.07669997215271 17.58465003967285 L -2.0617499351501465 17.570899963378906 L -2.0480000972747803 17.558238983154297 L -1.5196499824523926 17.071699142456055 L -1.50600004196167 17.059999465942383 L -1.500746726989746 17.05507469177246 L -1.4916070699691772 17.046506881713867 L -1.4900000095367432 17.045000076293945 L -1.4884756803512573 17.042118072509766 L -1.475500226020813 17.01817512512207 L -1.4556971788406372 16.98029136657715 L -1.4538898468017578 16.97683334350586 L -1.4238231182098389 16.92045783996582 L -1.4125480651855469 16.900728225708008 L -1.25 16.60099983215332 L -1.242483377456665 16.58690643310547 L -1.1328843832015991 16.384000778198242 L -1.1034247875213623 16.32946014404297 L -1.0905872583389282 16.30581283569336 L -1.0855727195739746 16.29657554626465 L -1.0760091543197632 16.278867721557617 L -1.0750000476837158 16.277000427246094 L -1.0712260007858276 16.25461196899414 L -1.070070743560791 16.247968673706055 L -1.067430019378662 16.232784271240234 L -1.0655783414840698 16.221303939819336 L -1.064841866493225 16.216737747192383 L -1.0626850128173828 16.203365325927734 z" fill="none" stroke="rgb(0,0,0)" stroke-width="0.1mm" />
</svg>