<?xml version="1.0" standalone="no"?>
<!DOCTYPE svg PUBLIC "-//W3C//DTD SVG 1.1//EN"
  "http://www.w3.org/Graphics/SVG/1.1/DTD/svg11.dtd">
<svg width="22mm" height="22.000000953674316mm" viewBox="-9.585000038146973 9.414999961853027 22 22.000000953674316" xmlns="http://www.w3.org/2000/svg" version="1.1">
	<title>svgOutput</title>
	<desc>made with tinkercad</desc>
<path d="M -7.353000164031982 17.753000259399414 L -7.455041885375977 17.687957763671875 L -7.614999771118164 17.586000442504883 L -7.796999931335449 17.34600067138672 L -7.803999900817871 17.339000701904297 L -7.851093769073486 17.1886043548584 L -7.896999835968018 17.04199981689453 L -7.882999897003174 16.73200035095215 L -7.764999866485596 16.444000244140625 L -7.70918607711792 16.384000778198242 L -7.644999980926514 16.315000534057617 L -7.554999828338623 16.214000701904297 L -7.547342300415039 16.210018157958984 L -7.28000020980835 16.070999145507812 L -6.974442005157471 16.030588150024414 L -6.96999979019165 16.030000686645508 L -6.9679999351501465 16.031999588012695 L -6.666999816894531 16.097999572753906 L -6.379000186920166 16.218000411987305 L -6.144000053405762 16.23408317565918 L -6.116000175476074 16.236000061035156 L -6.068999767303467 16.239999771118164 L -5.769999980926514 16.152000427246094 L -5.519999980926514 15.967000007629395 L -5.3480000495910645 15.710000038146973 L -5.27400016784668 15.406999588012695 L -5.306654930114746 15.118054389953613 L -5.307000160217285 15.114999771118164 L -5.308000087738037 15.098999977111816 L -5.443999767303467 14.819999694824219 L -5.665999889373779 14.598999977111816 L -5.684000015258789 14.572999954223633 L -5.843999862670898 14.345000267028809 L -5.84534215927124 14.339950561523438 L -5.8463921546936035 14.336000442504883 L -5.923999786376953 14.043999671936035 L -5.896999835968018 13.734999656677246 L -5.767000198364258 13.45300006866455 L -5.546999931335449 13.232999801635742 L -5.264999866485596 13.102999687194824 L -5.1274261474609375 13.090315818786621 L -5.124000072479248 13.09000015258789 L -4.955999851226807 13.076000213623047 L -4.65500020980835 13.156000137329102 L -4.401000022888184 13.333999633789062 L -4.179999828338623 13.555999755859375 L -4.0960001945495605 13.597288131713867 L -3.944000005722046 13.67199993133545 L -3.9010000228881836 13.692000389099121 L -3.5929999351501465 13.72599983215332 L -3.2899999618530273 13.652000427246094 L -3.0329999923706055 13.479999542236328 L -2.8969109058380127 13.296095848083496 L -2.8480000495910645 13.229999542236328 L -2.7660000324249268 12.946999549865723 L -2.759999990463257 12.930999755859375 L -2.7660000324249268 12.86400032043457 L -2.766934633255005 12.849803924560547 L -2.7820000648498535 12.621000289916992 L -2.7893383502960205 12.603387832641602 L -2.9019999504089355 12.333000183105469 L -2.9120991230010986 12.288000106811523 L -2.9700000286102295 12.029999732971191 L -2.9299726486206055 11.727354049682617 L -2.928999900817871 11.720000267028809 L -2.8889999389648438 11.647000312805176 L -2.7860000133514404 11.444999694824219 L -2.5829999446868896 11.260000228881836 L -2.557506799697876 11.236394882202148 L -2.556764602661133 11.235708236694336 L -2.555649995803833 11.234874725341797 L -2.5420000553131104 11.229999542236328 L -2.2679998874664307 11.116999626159668 L -2.0480000972747803 11.107064247131348 L -1.9579999446868896 11.102999687194824 L -1.6610000133514404 11.196000099182129 L -1.4170124530792236 11.382695198059082 L -1.4140000343322754 11.385000228881836 L -1.3660000562667847 11.461999893188477 L -1.246999979019165 11.647000312805176 L -1.128999948501587 11.9350004196167 L -0.925000011920929 12.170000076293945 L -0.9029080271720886 12.18193244934082 L -0.7065405249595642 12.288000106811523 L -0.6510000228881836 12.317999839782715 L -0.3449999988079071 12.366999626159668 L -0.039000000804662704 12.305999755859375 L -0.009521739557385445 12.288000106811523 L 0 12.282185554504395 L 0.18700000643730164 12.168000221252441 L 0.22599999606609344 12.145000457763672 L 0.4136110544204712 11.910245895385742 L 0.42100000381469727 11.901000022888184 L 0.4480000138282776 11.824000358581543 L 0.5220000147819519 11.607000350952148 L 0.5199999809265137 11.295999526977539 L 0.5730000138282776 10.989999771118164 L 0.6069999933242798 10.932000160217285 L 0.7289999723434448 10.720999717712402 L 0.7323300838470459 10.718201637268066 L 0.8623526096343994 10.608939170837402 L 0.8789514303207397 10.594990730285645 L 0.9670000076293945 10.520999908447266 L 1.225000023841858 10.428000450134277 L 1.2580372095108032 10.41536808013916 L 1.2594000101089478 10.414999961853027 L 1.2610645294189453 10.414999961853027 L 1.5709999799728394 10.414999961853027 L 1.6001307964324951 10.425575256347656 L 1.8630000352859497 10.520999908447266 L 2.0480000972747803 10.676462173461914 L 2.1010000705718994 10.720999717712402 L 2.256999969482422 10.989999771118164 L 2.2730000019073486 11.081000328063965 L 2.309999942779541 11.295999526977539 L 2.308000087738037 11.607000350952148 L 2.4089999198913574 11.901000022888184 L 2.6040000915527344 12.145000457763672 L 2.8393726348876953 12.288000106811523 L 2.86899995803833 12.305999755859375 L 2.992000102996826 12.331000328063965 L 3.174999952316284 12.366999626159668 L 3.4809999465942383 12.317999839782715 L 3.5365405082702637 12.288000106811523 L 3.733224391937256 12.181761741638184 L 3.7532193660736084 12.170961380004883 L 3.755000114440918 12.170000076293945 L 3.809000015258789 12.107000350952148 L 3.9590001106262207 11.9350004196167 L 4.077000141143799 11.647000312805176 L 4.0960001945495605 11.617444038391113 L 4.184999942779541 11.479000091552734 L 4.243504524230957 11.385788917541504 L 4.24399995803833 11.385000228881836 L 4.297999858856201 11.343999862670898 L 4.491000175476074 11.196000099182129 L 4.788000106811523 11.102999687194824 L 5.061999797821045 11.114999771118164 L 5.096980571746826 11.116943359375 L 5.0983500480651855 11.117124557495117 L 5.111999988555908 11.121999740600586 L 5.1438703536987305 11.135238647460938 L 5.246346473693848 11.17740535736084 L 5.36689567565918 11.22713851928711 L 5.386000156402588 11.234999656677246 L 5.387638568878174 11.236495971679688 L 5.616000175476074 11.444999694824219 L 5.758999824523926 11.720000267028809 L 5.7990264892578125 12.022638320922852 L 5.800000190734863 12.029999732971191 L 5.7779998779296875 12.119999885559082 L 5.741718292236328 12.288000106811523 L 5.73199987411499 12.333000183105469 L 5.611999988555908 12.621000289916992 L 5.590000152587891 12.930999755859375 L 5.677999973297119 13.229999542236328 L 5.839000225067139 13.449999809265137 L 5.861782073974609 13.478477478027344 L 5.8623175621032715 13.479146957397461 L 5.863174915313721 13.48009967803955 L 5.869999885559082 13.484000205993652 L 6.119999885559082 13.652000427246094 L 6.144000053405762 13.657861709594727 L 6.422999858856201 13.72599983215332 L 6.718116760253906 13.693422317504883 L 6.730999946594238 13.692000389099121 L 6.806000232696533 13.656000137329102 L 7.010000228881836 13.555999755859375 L 7.230999946594238 13.333999633789062 L 7.485000133514404 13.156000137329102 L 7.548999786376953 13.137999534606934 L 7.785999774932861 13.076000213623047 L 7.95845890045166 13.091069221496582 L 8.095000267028809 13.102999687194824 L 8.192000389099121 13.148188591003418 L 8.343999862670898 13.218999862670898 L 8.376999855041504 13.232999801635742 L 8.597000122070312 13.45300006866455 L 8.72700023651123 13.734999656677246 L 8.739999771118164 13.87600040435791 L 8.753999710083008 14.043999671936035 L 8.6763916015625 14.336000442504883 L 8.673999786376953 14.345000267028809 L 8.496000289916992 14.598999977111816 L 8.27400016784668 14.819999694824219 L 8.192000389099121 14.98822021484375 L 8.137999534606934 15.098999977111816 L 8.104000091552734 15.406999588012695 L 8.178000450134277 15.710000038146973 L 8.192000389099121 15.730918884277344 L 8.25141716003418 15.819698333740234 L 8.257152557373047 15.828269004821777 L 8.350000381469727 15.967000007629395 L 8.600000381469727 16.152000427246094 L 8.883000373840332 16.233999252319336 L 8.89900016784668 16.239999771118164 L 8.90278148651123 16.239730834960938 L 9.208999633789062 16.218000411987305 L 9.496999740600586 16.097999572753906 L 9.798906326293945 16.030244827270508 L 9.800000190734863 16.030000686645508 L 9.880999565124512 16.041000366210938 L 10.109999656677246 16.070999145507812 L 10.250545501708984 16.14408302307129 L 10.385000228881836 16.214000701904297 L 10.540217399597168 16.384000778198242 L 10.595000267028809 16.444000244140625 L 10.713000297546387 16.73200035095215 L 10.72700023651123 17.04199981689453 L 10.633999824523926 17.339000701904297 L 10.446932792663574 17.583473205566406 L 10.444999694824219 17.586000442504883 L 10.442999839782715 17.586000442504883 L 10.182999610900879 17.753000259399414 L 9.895000457763672 17.871000289916992 L 9.696000099182129 18.04400062561035 L 9.65999984741211 18.075000762939453 L 9.659698486328125 18.075559616088867 L 9.51200008392334 18.349000930786133 L 9.498708724975586 18.43199920654297 L 9.463912963867188 18.6492977142334 L 9.463000297546387 18.655000686645508 L 9.491999626159668 18.795000076293945 L 9.52400016784668 18.961000442504883 L 9.6850004196167 19.22599983215332 L 9.916000366210938 19.410999298095703 L 9.919289588928223 19.413530349731445 L 9.928999900817871 19.42099952697754 L 10.222999572753906 19.52199935913086 L 10.534000396728516 19.520000457763672 L 10.84000015258789 19.572999954223633 L 11.109000205993652 19.729000091552734 L 11.22403621673584 19.865894317626953 L 11.309000015258789 19.966999053955078 L 11.414999961853027 20.259000778198242 L 11.414999961853027 20.479999542236328 L 11.414999961853027 20.570999145507812 L 11.37131404876709 20.691343307495117 L 11.309000015258789 20.863000869750977 L 11.109000205993652 21.10099983215332 L 10.84000015258789 21.256999969482422 L 9.918000221252441 21.417999267578125 L 9.916000366210938 21.41900062561035 L 9.6850004196167 21.604000091552734 L 9.52400016784668 21.868999481201172 L 9.496999740600586 22.009000778198242 L 9.463000297546387 22.174999237060547 L 9.463900566101074 22.180625915527344 L 9.51200008392334 22.481000900268555 L 9.53748893737793 22.527999877929688 L 9.652999877929688 22.740999221801758 L 9.65999984741211 22.7549991607666 L 9.895000457763672 22.958999633789062 L 10.182999610900879 23.07699966430664 L 10.444999694824219 23.243999481201172 L 10.633999824523926 23.490999221801758 L 10.6810941696167 23.641395568847656 L 10.72700023651123 23.788000106811523 L 10.713000297546387 24.097999572753906 L 10.595000267028809 24.38599967956543 L 10.51778507232666 24.470569610595703 L 10.42152214050293 24.576000213623047 L 10.385000228881836 24.615999221801758 L 10.258000373840332 24.68000030517578 L 10.25169849395752 24.68336296081543 L 10.109999656677246 24.759000778198242 L 9.800000190734863 24.799999237060547 L 9.496999740600586 24.73200035095215 L 9.208999633789062 24.61199951171875 L 8.946000099182129 24.5939998626709 L 8.89900016784668 24.59000015258789 L 8.896841049194336 24.590635299682617 L 8.600000381469727 24.67799949645996 L 8.350000381469727 24.863000869750977 L 8.192000389099121 25.09908103942871 L 8.178000450134277 25.1200008392334 L 8.104000091552734 25.42300033569336 L 8.13700008392334 25.71500015258789 L 8.137999534606934 25.731000900268555 L 8.139052391052246 25.733158111572266 L 8.192000389099121 25.841779708862305 L 8.27400016784668 26.010000228881836 L 8.496000289916992 26.231000900268555 L 8.673999786376953 26.485000610351562 L 8.710943222045898 26.624000549316406 L 8.753999710083008 26.785999298095703 L 8.746999740600586 26.868000030517578 L 8.72700023651123 27.094999313354492 L 8.611000061035156 27.3439998626709 L 8.5977783203125 27.375165939331055 L 8.597396850585938 27.376066207885742 L 8.596725463867188 27.37725067138672 L 8.382225036621094 27.59174919128418 L 8.376999855041504 27.597000122070312 L 8.192000389099121 27.682283401489258 L 8.095000267028809 27.726999282836914 L 7.945000171661377 27.742000579833984 L 7.785999774932861 27.753999710083008 L 7.485000133514404 27.673999786376953 L 7.409999847412109 27.621999740600586 L 7.230999946594238 27.496000289916992 L 7.010000228881836 27.27400016784668 L 6.835000038146973 27.18899917602539 L 6.730999946594238 27.13800048828125 L 6.729705810546875 27.13785743713379 L 6.559000015258789 27.118999481201172 L 6.422999858856201 27.104000091552734 L 6.144000053405762 27.172138214111328 L 6.119999885559082 27.17799949645996 L 5.86299991607666 27.350000381469727 L 5.677999973297119 27.600000381469727 L 5.590120792388916 27.898590087890625 L 5.590000152587891 27.89900016784668 L 5.5960001945495605 27.98200035095215 L 5.611999988555908 28.208999633789062 L 5.73199987411499 28.496999740600586 L 5.771274089813232 28.672000885009766 L 5.800000190734863 28.799999237060547 L 5.790999889373779 28.865999221801758 L 5.758999824523926 29.110000610351562 L 5.757275104522705 29.113317489624023 L 5.616000175476074 29.385000228881836 L 5.5980000495910645 29.402000427246094 L 5.47154426574707 29.516836166381836 L 5.453088760375977 29.533924102783203 L 5.3867645263671875 29.59429168701172 L 5.385650157928467 29.595125198364258 L 5.385127067565918 29.595312118530273 L 5.372000217437744 29.600000381469727 L 5.0980000495910645 29.71299934387207 L 5.04946231842041 29.715192794799805 L 4.788000106811523 29.726999282836914 L 4.491000175476074 29.634000778198242 L 4.24399995803833 29.44499969482422 L 4.196000099182129 29.368000030517578 L 4.0960001945495605 29.21253776550293 L 4.077000141143799 29.183000564575195 L 3.9590001106262207 28.895000457763672 L 3.7654170989990234 28.672000885009766 L 3.755000114440918 28.65999984741211 L 3.4809999465942383 28.511999130249023 L 3.174999952316284 28.46299934387207 L 2.86899995803833 28.52400016784668 L 2.6253974437713623 28.672000885009766 L 2.6040000915527344 28.684999465942383 L 2.42250394821167 28.91210174560547 L 2.4089999198913574 28.929000854492188 L 2.3957221508026123 28.96686553955078 L 2.381999969482422 29.006000518798828 L 2.308000087738037 29.222999572753906 L 2.3098294734954834 29.507484436035156 L 2.309999942779541 29.534000396728516 L 2.2739999294281006 29.732999801635742 L 2.257427215576172 29.837310791015625 L 2.257404327392578 29.83745574951172 L 2.256999969482422 29.84000015258789 L 2.2230000495910645 29.898000717163086 L 2.1991734504699707 29.9385929107666 L 2.1974968910217285 29.941505432128906 L 2.115339517593384 30.084199905395508 L 2.107180118560791 30.0982666015625 L 2.1010000705718994 30.108999252319336 L 2.0480000972747803 30.15353775024414 L 1.8630000352859497 30.30900001525879 L 1.6050000190734863 30.402000427246094 L 1.571962833404541 30.41463279724121 L 1.5706000328063965 30.415000915527344 L 1.568935513496399 30.415000915527344 L 1.2589999437332153 30.415000915527344 L 0.9670000076293945 30.30900001525879 L 0.7289999723434448 30.108999252319336 L 0.5730000138282776 29.84000015258789 L 0.5569999814033508 29.749000549316406 L 0.5199999809265137 29.534000396728516 L 0.5220000147819519 29.222999572753906 L 0.42100000381469727 28.929000854492188 L 0.22599999606609344 28.684999465942383 L 0.20451773703098297 28.672000885009766 L 0 28.548236846923828 L -0.007000000216066837 28.54400062561035 L -0.03809018433094025 28.524568557739258 L -0.03922500088810921 28.523950576782227 L -0.04065877944231033 28.523632049560547 L -0.04800000041723251 28.52199935913086 L -0.3449999988079071 28.46299934387207 L -0.6510000228881836 28.511999130249023 L -0.925000011920929 28.65999984741211 L -0.9352856874465942 28.672000885009766 L -0.9789999723434448 28.722999572753906 L -1.128999948501587 28.895000457763672 L -1.1315714120864868 28.900999069213867 L -1.1740000247955322 29 L -1.246999979019165 29.183000564575195 L -1.2635692358016968 29.208993911743164 L -1.4140000343322754 29.44499969482422 L -1.468000054359436 29.486000061035156 L -1.6610000133514404 29.634000778198242 L -1.6642792224884033 29.635026931762695 L -1.7961242198944092 29.676311492919922 L -1.9579999446868896 29.726999282836914 L -2.0480000972747803 29.723058700561523 L -2.2320001125335693 29.71500015258789 L -2.2679998874664307 29.71299934387207 L -2.555999994277954 29.594999313354492 L -2.7786056995391846 29.391752243041992 L -2.7860000133514404 29.385000228881836 L -2.8499999046325684 29.257999420166016 L -2.928999900817871 29.110000610351562 L -2.9700000286102295 28.799999237060547 L -2.9412739276885986 28.672000885009766 L -2.9019999504089355 28.496999740600586 L -2.7820000648498535 28.208999633789062 L -2.759999990463257 27.89900016784668 L -2.8480000495910645 27.600000381469727 L -3.0329999923706055 27.350000381469727 L -3.2899999618530273 27.17799949645996 L -3.5449111461639404 27.11574363708496 L -3.5929999351501465 27.104000091552734 L -3.819999933242798 27.128999710083008 L -3.8982574939727783 27.1376953125 L -3.900578022003174 27.13797378540039 L -3.9010000228881836 27.13800048828125 L -4.0960001945495605 27.23305320739746 L -4.179999828338623 27.27400016784668 L -4.401000022888184 27.496000289916992 L -4.65500020980835 27.673999786376953 L -4.73199987411499 27.69499969482422 L -4.955999851226807 27.753999710083008 L -5.132981300354004 27.738534927368164 L -5.264999866485596 27.726999282836914 L -5.546999931335449 27.597000122070312 L -5.767000198364258 27.37700080871582 L -5.896999835968018 27.094999313354492 L -5.923999786376953 26.785999298095703 L -5.880943298339844 26.624000549316406 L -5.843999862670898 26.485000610351562 L -5.843999862670898 26.482999801635742 L -5.8431477546691895 26.481794357299805 L -5.665999889373779 26.231000900268555 L -5.443999767303467 26.010000228881836 L -5.328000068664551 25.77400016784668 L -5.308000087738037 25.731000900268555 L -5.307106018066406 25.722902297973633 L -5.27400016784668 25.42300033569336 L -5.3480000495910645 25.1200008392334 L -5.519999980926514 24.863000869750977 L -5.622000217437744 24.78700065612793 L -5.769999980926514 24.67799949645996 L -6.052999973297119 24.59600067138672 L -6.068999767303467 24.59000015258789 L -6.072781085968018 24.590269088745117 L -6.144000053405762 24.595321655273438 L -6.379000186920166 24.61199951171875 L -6.666999816894531 24.73200035095215 L -6.96999979019165 24.799999237060547 L -7.28000020980835 24.759000778198242 L -7.420546054840088 24.685916900634766 L -7.554999828338623 24.615999221801758 L -7.590643405914307 24.576000213623047 L -7.644999980926514 24.514999389648438 L -7.764999866485596 24.38599967956543 L -7.769298076629639 24.37550926208496 L -7.882137775421143 24.1001033782959 L -7.882999897003174 24.097999572753906 L -7.894000053405762 23.85099983215332 L -7.896999835968018 23.788000106811523 L -7.851520538330078 23.642759323120117 L -7.848040580749512 23.63164710998535 L -7.803999900817871 23.490999221801758 L -7.6169328689575195 23.24652671813965 L -7.614999771118164 23.243999481201172 L -7.61299991607666 23.243999481201172 L -7.353000164031982 23.07699966430664 L -7.263999938964844 23.04199981689453 L -7.068690776824951 22.960538864135742 L -7.065000057220459 22.958999633789062 L -6.866000175476074 22.785999298095703 L -6.829999923706055 22.7549991607666 L -6.818480968475342 22.733675003051758 L -6.7073869705200195 22.527999877929688 L -6.682000160217285 22.481000900268555 L -6.644000053405762 22.2450008392334 L -6.633903503417969 22.180749893188477 L -6.632999897003174 22.174999237060547 L -6.6620001792907715 22.03499984741211 L -6.693999767303467 21.868999481201172 L -6.855000019073486 21.604000091552734 L -7.085999965667725 21.41900062561035 L -7.089289665222168 21.41646957397461 L -7.098999977111816 21.409000396728516 L -7.39300012588501 21.308000564575195 L -7.703999996185303 21.309999465942383 L -8.010000228881836 21.256999969482422 L -8.192000389099121 21.151453018188477 L -8.279000282287598 21.10099983215332 L -8.479000091552734 20.863000869750977 L -8.548999786376953 20.67099952697754 L -8.585000038146973 20.570999145507812 L -8.585000038146973 20.259000778198242 L -8.479000091552734 19.966999053955078 L -8.287201881408691 19.738759994506836 L -8.279000282287598 19.729000091552734 L -8.272268295288086 19.725088119506836 L -8.192000389099121 19.67888641357422 L -8.008341789245605 19.573171615600586 L -8.001261711120605 19.571937561035156 L -7.999581336975098 19.571645736694336 L -7.712567329406738 19.521650314331055 L -7.703999996185303 19.520000457763672 L -7.703129291534424 19.52000617980957 L -7.39300012588501 19.52199935913086 L -7.142000198364258 19.43600082397461 L -7.098999977111816 19.42099952697754 L -7.088634014129639 19.412715911865234 L -6.855000019073486 19.22599983215332 L -6.693999767303467 18.961000442504883 L -6.667089939117432 18.82146644592285 L -6.666999816894531 18.820999145507812 L -6.632999897003174 18.655000686645508 L -6.6339006423950195 18.64937400817871 L -6.6687092781066895 18.43199920654297 L -6.682000160217285 18.349000930786133 L -6.822999954223633 18.089000701904297 L -6.829999923706055 18.075000762939453 L -6.831119060516357 18.07402801513672 L -7.065000057220459 17.871000289916992 L -7.353000164031982 17.753000259399414 M 5.6422247886657715 17.224449157714844 L 5.641075134277344 17.22224998474121 L 5.605000019073486 17.15399932861328 L 5.603303909301758 17.152515411376953 L 5.594322204589844 17.144657135009766 L 5.572999954223633 17.125999450683594 L 5.572325229644775 17.125375747680664 L 5.544525146484375 17.099775314331055 L 4.766989231109619 16.384000778198242 L 4.378425121307373 16.02630043029785 L 4.375549793243408 16.023649215698242 L 4.323450565338135 15.975143432617188 L 4.318999767303467 15.970999717712402 L 4.276000022888184 15.95300006866455 L 4.27524995803833 15.95265007019043 L 4.0960001945495605 15.874001502990723 L 2.8264000415802 15.316949844360352 L 2.7884249687194824 15.300299644470215 L 2.7863171100616455 15.299363136291504 L 2.7179999351501465 15.269000053405762 L 2.716049909591675 15.268824577331543 L 2.5454249382019043 15.25517463684082 L 2.5054500102996826 15.251850128173828 L 1.0546499490737915 15.130949974060059 L 1.0410000085830688 15.128999710083008 L 0.9760000109672546 15.12399959564209 L 0.9749143123626709 15.124305725097656 L 0.9742576479911804 15.124489784240723 L 0.9604401588439941 15.128376007080078 L 0.9440000057220459 15.133000373840332 L 0.9428750276565552 15.133275032043457 L 0 15.371819496154785 L -0.6025000214576721 15.524250030517578 L -0.6422500014305115 15.534324645996094 L -0.6909999847412109 15.54699993133545 L -0.7081376314163208 15.551613807678223 L -0.7170000076293945 15.553999900817871 L -0.7466129660606384 15.573307037353516 L -1.0980088710784912 15.803257942199707 L -1.1753679513931274 15.853189468383789 L -1.300331711769104 15.934826850891113 L -1.5607566833496094 16.104957580566406 L -1.5867774486541748 16.121837615966797 L -1.6188507080078125 16.14291000366211 L -1.9857803583145142 16.384000778198242 L -2.000999927520752 16.393999099731445 L -2.0354599952697754 16.415098190307617 L -2.0804688930511475 16.44533920288086 L -2.1142256259918213 16.4664363861084 L -2.1268842220306396 16.47557830810547 L -2.180000066757202 16.510000228881836 L -2.1870532035827637 16.519033432006836 L -2.205780267715454 16.543020248413086 L -2.2856709957122803 16.64668846130371 L -2.7070000171661377 17.184999465942383 L -2.773575782775879 17.271549224853516 L -3.180638313293457 17.79464340209961 L -3.187295913696289 17.801300048828125 L -3.226290225982666 17.85456085205078 L -3.249979257583618 17.88510513305664 L -3.253000020980835 17.888999938964844 L -3.3313090801239014 18.117191314697266 L -3.33380389213562 18.125507354736328 L -3.7179999351501465 19.243999481201172 L -3.7321369647979736 19.281421661376953 L -3.7820327281951904 19.428613662719727 L -3.7853591442108154 19.440256118774414 L -3.8028225898742676 19.490983963012695 L -3.819999933242798 19.541000366210938 L -3.819999933242798 20.479999542236328 L -3.819999933242798 21.28851318359375 L -3.819999933242798 21.288999557495117 L -3.808311700820923 21.323200225830078 L -3.807894229888916 21.32695770263672 L -3.8076279163360596 21.329355239868164 L -3.8073573112487793 21.331790924072266 L -3.80202317237854 21.345659255981445 L -3.796999931335449 21.358720779418945 L -3.789576768875122 21.378021240234375 L -3.788266897201538 21.381425857543945 L -3.5683233737945557 22.025413513183594 L -3.562999963760376 22.041000366210938 L -3.5525002479553223 22.071544647216797 L -3.2928707599639893 22.828479766845703 L -3.290961503982544 22.83038902282715 L -3.2670986652374268 22.900068283081055 L -3.253000020980835 22.94099998474121 L -3.225083112716675 22.97699546813965 L -3.203562021255493 23.004491806030273 L -3.1655168533325195 23.056455612182617 L -2.6969106197357178 23.65775489807129 L -2.6829917430877686 23.67445945739746 L -2.566999912261963 23.82200050354004 L -2.562824249267578 23.82776641845703 L -2.547513484954834 23.848909378051758 L -2.2533586025238037 24.225650787353516 L -2.2078897953033447 24.28411102294922 L -2.180000066757202 24.31999969482422 L -2.1695666313171387 24.32753562927246 L -2.1619999408721924 24.33300018310547 L -2.160799980163574 24.333749771118164 L -2.10107684135437 24.372756958007812 L -1.7898883819580078 24.576000213623047 L -0.8172500133514404 25.21125030517578 L -0.7850750088691711 25.2322998046875 L -0.782325029373169 25.23407554626465 L -0.7170000076293945 25.275999069213867 L -0.6909999847412109 25.283000946044922 L -0.6897500157356262 25.2833251953125 L 0 25.458148956298828 L 0.8604999780654907 25.676250457763672 L 0.9001250267028809 25.686275482177734 L 0.9440000057220459 25.69700050354004 L 0.957281231880188 25.700735092163086 L 0.9760000109672546 25.70599937438965 L 1.0410000085830688 25.701000213623047 L 1.04135000705719 25.700950622558594 L 1.0785499811172485 25.69784927368164 L 2.6375749111175537 25.568174362182617 L 2.6419498920440674 25.567825317382812 L 2.644066572189331 25.56763458251953 L 2.6822500228881836 25.564208984375 L 2.7179999351501465 25.56100082397461 L 2.7285749912261963 25.556299209594727 L 3.054642915725708 25.4133358001709 L 4.0960001945495605 24.956756591796875 L 4.20959997177124 24.906949996948242 L 4.2467498779296875 24.890649795532227 L 4.276000022888184 24.87700080871582 L 4.318192005157471 24.859338760375977 L 4.318999767303467 24.858999252319336 L 4.319032669067383 24.858970642089844 L 4.3204498291015625 24.857650756835938 L 4.422512531280518 24.763574600219727 L 4.432575225830078 24.75429916381836 L 4.462474822998047 24.726774215698242 L 4.62620735168457 24.576000213623047 L 5.546675205230713 23.728374481201172 L 5.572999954223633 23.70400047302246 L 5.600961208343506 23.679533004760742 L 5.601846218109131 23.678760528564453 L 5.605000019073486 23.676000595092773 L 5.608076095581055 23.67023468017578 L 5.611607074737549 23.663705825805664 L 5.633999347686768 23.622289657592773 L 5.64433479309082 23.60251808166504 L 5.650132179260254 23.591426849365234 L 5.677220344543457 23.539608001708984 L 5.715497016906738 23.468942642211914 L 5.738293170928955 23.426856994628906 L 5.759903907775879 23.386455535888672 L 6.085000038146973 22.78700065612793 L 6.100033283233643 22.758811950683594 L 6.379089832305908 22.243919372558594 L 6.414793968200684 22.178150177001953 L 6.435999870300293 22.138999938964844 L 6.436020374298096 22.13887596130371 L 6.438450336456299 22.12428092956543 L 6.443446159362793 22.09427261352539 L 6.445106506347656 22.08336067199707 L 6.450088977813721 22.05061912536621 L 6.454427719116211 22.023283004760742 L 6.459578990936279 21.99083137512207 L 6.465272903442383 21.958566665649414 L 6.581999778747559 21.261999130249023 L 6.703472137451172 20.533166885375977 L 6.712893962860107 20.479999542236328 L 6.7167582511901855 20.45819664001465 L 6.723999977111816 20.415000915527344 L 6.716457843780518 20.369796752929688 L 6.703176021575928 20.29200553894043 L 6.577000141143799 19.534000396728516 L 6.570359230041504 19.493206024169922 L 6.561458110809326 19.440629959106445 L 6.454458236694336 18.808629989624023 L 6.443234443664551 18.7342529296875 L 6.435999870300293 18.69099998474121 L 6.435050010681152 18.689250946044922 L 6.393125057220459 18.612224578857422 L 6.374450206756592 18.577749252319336 L 5.642781734466553 17.225479125976562 L 5.6422247886657715 17.224449157714844 z" fill="none" stroke="rgb(0,0,0)" stroke-width="0.1mm" />
</svg>