<svg id="svg" preserveAspectRatio="none" viewBox="0 0 100 100" width="0px" height="0px">
      <path d="M 41.891 0.205 L 57.626 0.205 L 58.479 22.052 C 61.441 22.951 64.247 24.302 66.796 26.057 L 84.408 13.103 L 94.219 25.405 L 77.67 39.694 C 78.814 42.569 79.507 45.605 79.724 48.693 L 100.834 54.385 L 97.331 69.726 L 75.844 65.696 C 74.308 68.385 72.367 70.819 70.088 72.913 L 78.798 92.965 L 64.621 99.794 L 54.375 80.481 C 51.316 80.957 48.202 80.957 45.144 80.481 L 34.897 99.794 L 20.719 92.965 L 29.431 72.913 C 27.151 70.819 25.21 68.385 23.674 65.696 L 2.185 69.726 L -0.833 54.385 L 19.793 48.693 C 20.011 45.605 20.703 42.569 21.849 39.694 L 5.3 25.405 L 15.11 13.103 L 32.721 26.057 C 35.27 24.302 38.078 22.951 41.04 22.052 L 41.891 0.205 Z M 46.41 26.045 C 43.823 26.831 34.864 30.735 32.638 32.268 L 15.692 19.732 L 11.55 24.909 L 27.568 37.253 C 26.567 39.763 24.489 50.279 24.299 52.976 L 5.167 57.69 L 6.372 64.037 L 25.579 59.868 C 26.921 62.216 33.585 69.911" data-reactid=".1c0hi1r0074.1.4.1.0.0.0" style="fill: inherit;"></path>
      <path d="M 40.271 87.33 L 40.271 87.33 Z" style="stroke: rgb(0, 0, 0); fill: rgb(216, 216, 216);"></path>
      <path transform="matrix(-0.707107, 0.707107, -0.707107, -0.707107, 438.003846, 54.921455)" d="M 272 278 m -12.581 0 a 12.581 12.581 0 1 0 25.162 0 a 12.581 12.581 0 1 0 -25.162 0 Z M 272 278 m -7.548 0 a 7.548 7.548 0 0 1 15.096 0 a 7.548 7.548 0 0 1 -15.096 0 Z" style="fill: inherit;" bx:shape="ring 272 278 7.548 7.548 12.581 12.581 1@a7b7e3b2"></path>
    </svg>