<?xml version="1.0" encoding="utf-8"?>
<!-- Generator: Fusion 360, Shaper Origin Export Add-In, Version 1.5.0  -->
<svg enable-background="new 0 0 4.5732138 4.5292499" height="4.5292499cm" shaper:fusionaddin="version:1.5.0" version="1.1" viewBox="0 0 4.5732138 4.5292499" width="4.5732138cm" x="0cm" xml:space="preserve" xmlns="http://www.w3.org/2000/svg" xmlns:shaper="http://www.shapertools.com/namespaces/shaper" xmlns:xlink="http://www.w3.org/1999/xlink" y="0cm"><path d="M-0.4195862,1.1563561 L-0.5889455,1.3687259 -1.3275737,1.0586913 -1.4654104,1.3449123 -0.762499,1.7291134 -0.8229426,1.9939342 -1.6229426,2.0350815 -1.6229426,2.3527628 -0.8229426,2.3939342 -0.762499,2.658755 -1.4654209,3.0429344 -1.3275842,3.3291554 -0.5889455,3.0191425 -0.4195862,3.2315123 -0.8862078,3.8826324 -0.6378346,4.0807035 -0.1068536,3.4809082 0.1378776,3.5987646 -0.0000235,4.387863 0.3096928,4.4585538 0.5278487,3.6877729 0.7994799,3.6877729 1.0176123,4.4585591 1.3273286,4.3878684 1.1894511,3.5987646 1.4341823,3.4809082 1.9651443,4.0807185 2.2135176,3.8826475 1.7469149,3.2315123 1.9162741,3.0191425 2.6549023,3.3291771 2.7927391,3.0429561 2.0898276,2.658755 2.1502712,2.3939342 2.9502712,2.3527869 2.9502712,2.0351056 2.1502712,1.9939342 2.0898276,1.7291134 2.7927496,1.344934 2.6549128,1.058713 1.9162741,1.3687259 1.7469149,1.1563561 2.2135365,0.505236 1.9651632,0.3071649 1.4341823,0.9069602 1.1894511,0.7891038 1.3273522,0.0000054 1.0176358,-0.0706854 0.7994799,0.7000955 0.5278487,0.7000955 0.3097164,-0.0706907 0,0 0.1378776,0.7891038 -0.1068536,0.9069602 -0.6378157,0.3071499 -0.8861889,0.5052209 -0.4195862,1.1563561z" fill="rgb(0,0,0)" shaper:cutDepth="0.001" shaper:pathType="exterior" transform="matrix(1,0,0,-1,1.6229426,4.4585591)" vector-effect="non-scaling-stroke" /></svg>