<?xml version="1.0" encoding="utf-8"?>
<!-- Generator: Fusion 360, Shaper Origin Export Add-In, Version 1.5.0  -->
<svg enable-background="new 0 0 3.1595918 3.1062095" height="3.1062095cm" shaper:fusionaddin="version:1.5.0" version="1.1" viewBox="0 0 3.1595918 3.1062095" width="3.1595918cm" x="0cm" xml:space="preserve" xmlns="http://www.w3.org/2000/svg" xmlns:shaper="http://www.shapertools.com/namespaces/shaper" xmlns:xlink="http://www.w3.org/1999/xlink" y="0cm"><path d="M1.6747635,-0.1910927 L1.1680994,0.1323249 0.9859698,-0 1.1369904,-0.5818078 0.8253469,-0.6830669 0.6055472,-0.1236068 0.3804226,-0.1236068 0.1606228,-0.6830669 -0.1510206,-0.5818078 0,0 -0.1821296,0.1323249 -0.6887937,-0.1910927 -0.8814,0.074007 -0.4172437,0.4559317 -0.486811,0.6700379 -1.086811,0.7061972 -1.086811,1.0338785 -0.486811,1.0700379 -0.4172437,1.2841441 -0.8814,1.6660687 -0.6887937,1.9311685 -0.1821296,1.6077509 0,1.7400757 -0.1510206,2.3218835 0.1606228,2.4231426 0.3804226,1.8636825 0.6055472,1.8636825 0.825347,2.4231426 1.1369904,2.3218835 0.9859698,1.7400757 1.1680994,1.6077508 1.6747635,1.9311685 1.8673697,1.6660687 1.4032135,1.2841441 1.4727808,1.0700379 2.0727808,1.0338785 2.0727808,0.7061972 1.4727808,0.6700379 1.4032135,0.4559317 1.8673697,0.074007 1.6747635,-0.1910927z" fill="rgb(0,0,0)" shaper:cutDepth="0.001" shaper:pathType="exterior" transform="matrix(1,0,0,-1,1.086811,2.4231426)" vector-effect="non-scaling-stroke" /></svg>